<svg width="79" height="78" viewBox="0 0 79 78" fill="none" xmlns="http://www.w3.org/2000/svg">
<g clip-path="url(#clip0_133_5724)">
<path d="M70.375 71.4995H8.625C4.1465 71.4995 0.5 67.853 0.5 63.3745V56.8745C0.5 55.9775 1.228 55.2495 2.125 55.2495H3.75C7.33475 55.2495 10.25 52.3343 10.25 48.7495C10.25 45.1648 7.33475 42.2495 3.75 42.2495H2.125C1.228 42.2495 0.5 41.5215 0.5 40.6245V34.1245C0.5 29.646 4.1465 25.9995 8.625 25.9995H70.375C74.8535 25.9995 78.5 29.646 78.5 34.1245V40.6245C78.5 41.5215 77.772 42.2495 76.875 42.2495H75.25C71.6653 42.2495 68.75 45.1648 68.75 48.7495C68.75 50.485 69.426 52.1165 70.6545 53.345C71.8798 54.5735 73.5113 55.2495 75.2467 55.2495H76.8717C77.7688 55.2495 78.4967 55.9775 78.4967 56.8745V63.3745C78.5 67.853 74.8535 71.4995 70.375 71.4995ZM3.75 58.4995V63.3745C3.75 66.0623 5.93725 68.2495 8.625 68.2495H70.375C73.0628 68.2495 75.25 66.0623 75.25 63.3745V58.4995C72.6468 58.4995 70.1963 57.4855 68.3568 55.646C66.514 53.8033 65.5 51.3528 65.5 48.7495C65.5 43.374 69.8745 38.9995 75.25 38.9995V34.1245C75.25 31.4368 73.0628 29.2495 70.375 29.2495H8.625C5.93725 29.2495 3.75 31.4368 3.75 34.1245V38.9995C9.1255 38.9995 13.5 43.374 13.5 48.7495C13.5 54.125 9.1255 58.4995 3.75 58.4995Z" fill="#999999"/>
<path d="M28.124 32.4995C27.227 32.4995 26.499 31.7715 26.499 30.8745V27.6245C26.499 26.7275 27.227 25.9995 28.124 25.9995C29.021 25.9995 29.749 26.7275 29.749 27.6245V30.8745C29.749 31.7715 29.021 32.4995 28.124 32.4995Z" fill="#999999"/>
<path d="M28.124 59.998C27.227 59.998 26.499 59.27 26.499 58.373V52.8772C26.499 51.9802 27.227 51.2522 28.124 51.2522C29.021 51.2522 29.749 51.977 29.749 52.8772V58.3762C29.749 59.2732 29.021 59.998 28.124 59.998ZM28.124 46.2505C27.227 46.2505 26.499 45.5225 26.499 44.6255V39.1265C26.499 38.2295 27.227 37.5015 28.124 37.5015C29.021 37.5015 29.749 38.2295 29.749 39.1265V44.6255C29.749 45.5225 29.021 46.2505 28.124 46.2505Z" fill="#999999"/>
<path d="M28.124 71.4995C27.227 71.4995 26.499 70.7715 26.499 69.8745V66.6245C26.499 65.7275 27.227 64.9995 28.124 64.9995C29.021 64.9995 29.749 65.7275 29.749 66.6245V69.8745C29.749 70.7715 29.021 71.4995 28.124 71.4995Z" fill="#999999"/>
<path d="M8.62398 29.2493C7.96423 29.2493 7.34348 28.8463 7.10298 28.1931C6.78773 27.3513 7.21348 26.4153 8.05523 26.1033L59.7302 6.80807C62.2425 5.86557 65.1935 7.27607 66.0514 9.80781L71.9112 27.1011C72.1972 27.9526 71.7422 28.8723 70.8939 29.1616C70.0522 29.4508 69.1227 28.9926 68.8334 28.1443L62.9737 10.8511C62.6877 10.0061 61.7062 9.54456 60.8644 9.85006L9.18948 29.1453C9.00423 29.2168 8.81248 29.2493 8.62398 29.2493Z" fill="#999999"/>
</g>
<defs>
<clipPath id="clip0_133_5724">
<rect width="78" height="78" fill="white" transform="translate(0.5)"/>
</clipPath>
</defs>
</svg>
