<svg width="52" height="52" viewBox="0 0 52 52" fill="none" xmlns="http://www.w3.org/2000/svg">
<g opacity="0.6" clip-path="url(#clip0_522_22525)">
<path d="M26 52C40.3594 52 52 40.3594 52 26C52 11.6406 40.3594 0 26 0C11.6406 0 0 11.6406 0 26C0 40.3594 11.6406 52 26 52Z" fill="#F15249"/>
<path d="M15.0913 37.7281L29.1165 51.7533C40.9273 50.359 50.2774 41.0908 51.7538 29.2801L37.6465 15.1729L15.0913 37.7281Z" fill="#AD0E0E"/>
<path d="M38.3028 31.7413C39.4511 32.8896 39.4511 34.858 38.3028 36.0063L36.0063 38.3028C34.858 39.4511 32.8896 39.4511 31.7413 38.3028L13.6971 20.2586C12.5489 19.1104 12.5489 17.1419 13.6971 15.9937L16.0757 13.6151C17.2239 12.4668 19.1924 12.4668 20.3407 13.6151L38.3028 31.7413Z" fill="white"/>
<path d="M28.7886 22.1445L22.145 28.7881L31.7412 38.3023C32.8895 39.4505 34.858 39.4505 36.0062 38.3023L38.3848 35.9237C39.533 34.7754 39.533 32.807 38.3848 31.6587L28.7886 22.1445Z" fill="#D6D6D6"/>
<path d="M31.7413 13.6971C32.8896 12.5489 34.858 12.5489 36.0063 13.6971L38.3848 16.0757C39.5331 17.2239 39.5331 19.1924 38.3848 20.3407L20.2587 38.3028C19.1104 39.4511 17.1419 39.4511 15.9937 38.3028L13.6971 36.0063C12.5489 34.858 12.5489 32.8896 13.6971 31.7413L31.7413 13.6971Z" fill="white"/>
</g>
<defs>
<clipPath id="clip0_522_22525">
<rect width="52" height="52" fill="white"/>
</clipPath>
</defs>
</svg>
