<svg width="141" height="26" viewBox="0 0 141 26" fill="none" xmlns="http://www.w3.org/2000/svg">
<g clip-path="url(#clip0_40_2442)">
<path d="M12.1997 10.0758C12.1316 10.0262 12.0466 10.0056 11.9633 10.0183C11.88 10.0311 11.8051 10.0762 11.7549 10.1439C11.7302 10.1773 11.7124 10.2152 11.7025 10.2555C11.6926 10.2959 11.6908 10.3377 11.6972 10.3788C11.7035 10.4198 11.718 10.4591 11.7397 10.4945C11.7614 10.5299 11.7899 10.5607 11.8236 10.585L11.952 10.6782C12.0202 10.7277 12.1051 10.7483 12.1884 10.7355C12.2717 10.7228 12.3466 10.6777 12.3968 10.6101C12.4215 10.5767 12.4393 10.5387 12.4492 10.4984C12.4592 10.4581 12.461 10.4162 12.4546 10.3752C12.4482 10.3342 12.4337 10.2948 12.412 10.2594C12.3903 10.224 12.3618 10.1933 12.3281 10.169L12.1997 10.0758Z" fill="#E7195A"/>
<path d="M11.1725 9.32965C11.1043 9.28015 11.0194 9.25951 10.9361 9.27222C10.8528 9.28493 10.7779 9.32996 10.7276 9.39754C10.7029 9.43092 10.6851 9.46886 10.6751 9.50918C10.6652 9.5495 10.6634 9.59138 10.6697 9.63242C10.6761 9.67345 10.6905 9.71281 10.7122 9.74822C10.7339 9.78363 10.7624 9.81438 10.7961 9.8387L10.9245 9.93201C10.9926 9.98153 11.0776 10.0022 11.1608 9.98946C11.2441 9.97675 11.3191 9.93172 11.3694 9.86413C11.3941 9.83076 11.4119 9.79281 11.4218 9.75249C11.4318 9.71217 11.4336 9.67028 11.4272 9.62925C11.4209 9.58822 11.4064 9.54885 11.3847 9.51344C11.363 9.47803 11.3345 9.44728 11.3009 9.42296L11.1725 9.32965Z" fill="#E7195A"/>
<path d="M6.8162 6.94768C6.88438 6.99717 6.96932 7.01778 7.0526 7.00503C7.13588 6.99227 7.21077 6.94719 7.26102 6.87956C7.2857 6.84618 7.30352 6.80823 7.31344 6.76791C7.32335 6.72759 7.32517 6.6857 7.31878 6.64467C7.31239 6.60365 7.29792 6.5643 7.27621 6.5289C7.25451 6.49351 7.22599 6.46277 7.19232 6.43848L7.06394 6.34525C6.99577 6.29573 6.91081 6.27511 6.82753 6.28787C6.74424 6.30062 6.66935 6.34572 6.61912 6.41336C6.59443 6.44675 6.57661 6.4847 6.5667 6.52502C6.55678 6.56534 6.55497 6.60722 6.56136 6.64825C6.56775 6.68928 6.58221 6.72863 6.60392 6.76402C6.62563 6.79941 6.65414 6.83015 6.68782 6.85444L6.8162 6.94768Z" fill="#E7195A"/>
<path d="M10.146 8.58355C10.0778 8.53402 9.99285 8.51339 9.90956 8.52615C9.82626 8.5389 9.75137 8.58401 9.70115 8.65167C9.67646 8.68505 9.65864 8.723 9.64873 8.76332C9.63881 8.80365 9.637 8.84553 9.64339 8.88656C9.64978 8.92759 9.66424 8.96694 9.68595 9.00233C9.70766 9.03773 9.73618 9.06846 9.76985 9.09276L9.89823 9.18599C9.96641 9.23548 10.0514 9.25609 10.1346 9.24334C10.2179 9.23058 10.2928 9.1855 10.343 9.11788C10.3677 9.08449 10.3856 9.04654 10.3955 9.00622C10.4054 8.9659 10.4072 8.92401 10.4008 8.88299C10.3944 8.84196 10.38 8.80261 10.3582 8.76721C10.3365 8.73182 10.308 8.70108 10.2744 8.67679L10.146 8.58355Z" fill="#E7195A"/>
<path d="M7.8434 7.69374C7.91157 7.74325 7.99651 7.7639 8.0798 7.75119C8.16309 7.73848 8.238 7.69344 8.2883 7.62585C8.31301 7.59247 8.33084 7.55453 8.34078 7.51421C8.35071 7.4739 8.35255 7.43201 8.34618 7.39097C8.33982 7.34994 8.32537 7.31058 8.30368 7.27517C8.28199 7.23976 8.25349 7.20901 8.21984 7.18469L8.09146 7.09138C8.02329 7.04187 7.93835 7.02123 7.85506 7.03394C7.77178 7.04664 7.69686 7.09167 7.64656 7.15926C7.62185 7.19263 7.60402 7.23058 7.59408 7.2709C7.58414 7.31121 7.58231 7.3531 7.58867 7.39414C7.59504 7.43517 7.60949 7.47453 7.63118 7.50994C7.65287 7.54535 7.68136 7.5761 7.71502 7.60042L7.8434 7.69374Z" fill="#E7195A"/>
<path d="M9.11844 7.83748C9.05028 7.78793 8.96532 7.7673 8.88203 7.78005C8.79873 7.79281 8.72384 7.83792 8.67362 7.90559C8.64894 7.93898 8.63112 7.97693 8.6212 8.01725C8.61129 8.05757 8.60947 8.09945 8.61586 8.14048C8.62225 8.18151 8.63672 8.22086 8.65843 8.25625C8.68013 8.29165 8.70865 8.32238 8.74232 8.34667L8.8707 8.43992C8.93888 8.48941 9.02383 8.51002 9.10711 8.49726C9.19039 8.48451 9.26528 8.43943 9.31552 8.3718C9.34021 8.33842 9.35803 8.30046 9.36794 8.26014C9.37786 8.21982 9.37967 8.17794 9.37329 8.13691C9.3669 8.09588 9.35243 8.05653 9.33072 8.02114C9.30901 7.98574 9.2805 7.95501 9.24682 7.93071L9.11844 7.83748Z" fill="#E7195A"/>
<path d="M0.366582 12.1991C0.34106 12.2345 0.323386 12.275 0.31474 12.3177C0.306095 12.3605 0.306677 12.4046 0.316449 12.4471C0.537624 12.4129 0.739558 12.3015 0.886501 12.1327C1.03345 11.9639 1.11592 11.7486 1.11933 11.5248C1.11917 11.337 1.17632 11.1536 1.28314 10.9991C1.22766 10.5527 1.03707 10.134 0.736908 9.79902L4.31512 4.84289C4.72926 5.01774 5.18635 5.06425 5.62722 4.9764C6.06808 4.88855 6.47243 4.67039 6.78792 4.35016L15.4696 10.5843H16.5519L6.92292 3.66992C6.85327 3.62035 6.76696 3.60004 6.68252 3.61337C6.64084 3.6199 6.60087 3.63461 6.56489 3.65663C6.52892 3.67866 6.49765 3.70757 6.47288 3.74172C6.24009 4.06042 5.89695 4.28102 5.51037 4.36051C5.12379 4.44 4.72145 4.37268 4.3818 4.17168C4.31254 4.13016 4.23027 4.11599 4.15111 4.13196C4.07195 4.14793 4.00161 4.19288 3.95386 4.258L0.0587959 9.65292C0.0130102 9.71617 -0.00714932 9.7944 0.00236657 9.8719C0.0118825 9.94939 0.0503689 10.0204 0.110096 10.0707C0.410899 10.3294 0.604027 10.6913 0.651492 11.0851C0.698957 11.479 0.597323 11.8764 0.366582 12.1991Z" fill="#E7195A"/>
<path d="M20.0796 13.2296C19.2617 13.1626 18.6209 12.5406 18.6209 11.7265C18.6207 11.6422 18.587 11.5614 18.5274 11.5017C18.4678 11.4421 18.387 11.4085 18.3026 11.4082H2.06899C1.98465 11.4085 1.90383 11.4421 1.8442 11.5017C1.78456 11.5614 1.75094 11.6422 1.75068 11.7265C1.75068 12.5406 1.10995 13.1626 0.292046 13.2296C0.212766 13.2358 0.138716 13.2716 0.0846099 13.3299C0.0305035 13.3881 0.000299925 13.4646 0 13.5442L0 20.1883C0.000300324 20.2678 0.0305041 20.3443 0.0846104 20.4026C0.138717 20.4609 0.212766 20.4966 0.292046 20.5028C0.687285 20.5358 1.05596 20.7152 1.32579 21.0059C1.59562 21.2966 1.74716 21.6775 1.75068 22.0741C1.75104 22.1582 1.78478 22.2387 1.84447 22.2979C1.90417 22.3571 1.98493 22.3901 2.06899 22.3898H18.3026C18.3867 22.3901 18.4674 22.3571 18.5271 22.2979C18.5868 22.2387 18.6206 22.1582 18.6209 22.0741C18.6244 21.6775 18.776 21.2966 19.0458 21.0059C19.3156 20.7152 19.6843 20.5358 20.0796 20.5028C20.1588 20.4966 20.2329 20.4609 20.287 20.4026C20.3411 20.3443 20.3713 20.2678 20.3716 20.1883V13.5442C20.3713 13.4646 20.3411 13.3881 20.287 13.3299C20.2329 13.2716 20.1588 13.2358 20.0796 13.2296ZM15.1195 13.4336H15.2787C15.3204 13.4333 15.3617 13.4412 15.4003 13.4569C15.4389 13.4726 15.4741 13.4958 15.5037 13.5251C15.5333 13.5545 15.5568 13.5894 15.5728 13.6279C15.5888 13.6663 15.5971 13.7076 15.5971 13.7493C15.5971 13.791 15.5888 13.8322 15.5728 13.8707C15.5568 13.9092 15.5333 13.9441 15.5037 13.9734C15.4741 14.0028 15.4389 14.026 15.4003 14.0417C15.3617 14.0574 15.3204 14.0653 15.2787 14.0649H15.1195C15.0779 14.0653 15.0365 14.0574 14.9979 14.0417C14.9593 14.026 14.9242 14.0028 14.8946 13.9734C14.865 13.9441 14.8415 13.9092 14.8254 13.8707C14.8094 13.8322 14.8012 13.791 14.8012 13.7493C14.8012 13.7076 14.8094 13.6663 14.8254 13.6279C14.8415 13.5894 14.865 13.5545 14.8946 13.5251C14.9242 13.4958 14.9593 13.4726 14.9979 13.4569C15.0365 13.4412 15.0779 13.4333 15.1195 13.4336ZM13.8463 13.4336H14.0055C14.0472 13.4333 14.0885 13.4412 14.1271 13.4569C14.1657 13.4726 14.2008 13.4958 14.2304 13.5251C14.26 13.5545 14.2835 13.5894 14.2996 13.6279C14.3156 13.6663 14.3239 13.7076 14.3239 13.7493C14.3239 13.791 14.3156 13.8322 14.2996 13.8707C14.2835 13.9092 14.26 13.9441 14.2304 13.9734C14.2008 14.0028 14.1657 14.026 14.1271 14.0417C14.0885 14.0574 14.0472 14.0653 14.0055 14.0649H13.8463C13.8046 14.0653 13.7633 14.0574 13.7247 14.0417C13.6861 14.026 13.651 14.0028 13.6214 13.9734C13.5918 13.9441 13.5683 13.9092 13.5522 13.8707C13.5362 13.8322 13.5279 13.791 13.5279 13.7493C13.5279 13.7076 13.5362 13.6663 13.5522 13.6279C13.5683 13.5894 13.5918 13.5545 13.6214 13.5251C13.651 13.4958 13.6861 13.4726 13.7247 13.4569C13.7633 13.4412 13.8046 13.4333 13.8463 13.4336ZM10.0266 13.4336H10.1858C10.2275 13.4333 10.2688 13.4412 10.3074 13.4569C10.346 13.4726 10.3812 13.4958 10.4108 13.5251C10.4404 13.5545 10.4639 13.5894 10.4799 13.6279C10.4959 13.6663 10.5042 13.7076 10.5042 13.7493C10.5042 13.791 10.4959 13.8322 10.4799 13.8707C10.4639 13.9092 10.4404 13.9441 10.4108 13.9734C10.3812 14.0028 10.346 14.026 10.3074 14.0417C10.2688 14.0574 10.2275 14.0653 10.1858 14.0649H10.0266C9.98497 14.0653 9.94363 14.0574 9.90501 14.0417C9.8664 14.026 9.83128 14.0028 9.80168 13.9734C9.77208 13.9441 9.74858 13.9092 9.73255 13.8707C9.71651 13.8322 9.70826 13.791 9.70826 13.7493C9.70826 13.7076 9.71651 13.6663 9.73255 13.6279C9.74858 13.5894 9.77208 13.5545 9.80168 13.5251C9.83128 13.4958 9.8664 13.4726 9.90501 13.4569C9.94363 13.4412 9.98497 13.4333 10.0266 13.4336ZM8.75342 13.4336H8.91258C8.95426 13.4333 8.9956 13.4412 9.03421 13.4569C9.07282 13.4726 9.10794 13.4958 9.13754 13.5251C9.16715 13.5545 9.19064 13.5894 9.20668 13.6279C9.22271 13.6663 9.23097 13.7076 9.23097 13.7493C9.23097 13.791 9.22271 13.8322 9.20668 13.8707C9.19064 13.9092 9.16715 13.9441 9.13754 13.9734C9.10794 14.0028 9.07282 14.026 9.03421 14.0417C8.9956 14.0574 8.95426 14.0653 8.91258 14.0649H8.75342C8.71174 14.0653 8.6704 14.0574 8.63179 14.0417C8.59318 14.026 8.55806 14.0028 8.52845 13.9734C8.49885 13.9441 8.47536 13.9092 8.45932 13.8707C8.44329 13.8322 8.43503 13.791 8.43503 13.7493C8.43503 13.7076 8.44329 13.6663 8.45932 13.6279C8.47536 13.5894 8.49885 13.5545 8.52845 13.5251C8.55806 13.4958 8.59318 13.4726 8.63179 13.4569C8.6704 13.4412 8.71174 13.4333 8.75342 13.4336ZM6.20697 13.4336H6.36613C6.40781 13.4333 6.44915 13.4412 6.48776 13.4569C6.52637 13.4726 6.56149 13.4958 6.59109 13.5251C6.6207 13.5545 6.64419 13.5894 6.66023 13.6279C6.67626 13.6663 6.68452 13.7076 6.68452 13.7493C6.68452 13.791 6.67626 13.8322 6.66023 13.8707C6.64419 13.9092 6.6207 13.9441 6.59109 13.9734C6.56149 14.0028 6.52637 14.026 6.48776 14.0417C6.44915 14.0574 6.40781 14.0653 6.36613 14.0649H6.20697C6.16529 14.0653 6.12395 14.0574 6.08534 14.0417C6.04673 14.026 6.01161 14.0028 5.982 13.9734C5.9524 13.9441 5.92891 13.9092 5.91287 13.8707C5.89684 13.8322 5.88858 13.791 5.88858 13.7493C5.88858 13.7076 5.89684 13.6663 5.91287 13.6279C5.92891 13.5894 5.9524 13.5545 5.982 13.5251C6.01161 13.4958 6.04673 13.4726 6.08534 13.4569C6.12395 13.4412 6.16529 13.4333 6.20697 13.4336ZM4.93375 13.4336H5.0929C5.13458 13.4333 5.17592 13.4412 5.21453 13.4569C5.25315 13.4726 5.28827 13.4958 5.31787 13.5251C5.34747 13.5545 5.37097 13.5894 5.387 13.6279C5.40304 13.6663 5.41129 13.7076 5.41129 13.7493C5.41129 13.791 5.40304 13.8322 5.387 13.8707C5.37097 13.9092 5.34747 13.9441 5.31787 13.9734C5.28827 14.0028 5.25315 14.026 5.21453 14.0417C5.17592 14.0574 5.13458 14.0653 5.0929 14.0649H4.93375C4.89207 14.0653 4.85073 14.0574 4.81211 14.0417C4.7735 14.026 4.73838 14.0028 4.70878 13.9734C4.67918 13.9441 4.65568 13.9092 4.63965 13.8707C4.62361 13.8322 4.61536 13.791 4.61536 13.7493C4.61536 13.7076 4.62361 13.6663 4.63965 13.6279C4.65568 13.5894 4.67918 13.5545 4.70878 13.5251C4.73838 13.4958 4.7735 13.4726 4.81211 13.4569C4.85073 13.4412 4.89207 13.4333 4.93375 13.4336ZM3.66052 13.4336H3.81968C3.86136 13.4333 3.9027 13.4412 3.94131 13.4569C3.97992 13.4726 4.01504 13.4958 4.04464 13.5251C4.07425 13.5545 4.09774 13.5894 4.11378 13.6279C4.12981 13.6663 4.13807 13.7076 4.13807 13.7493C4.13807 13.791 4.12981 13.8322 4.11378 13.8707C4.09774 13.9092 4.07425 13.9441 4.04464 13.9734C4.01504 14.0028 3.97992 14.026 3.94131 14.0417C3.9027 14.0574 3.86136 14.0653 3.81968 14.0649H3.66052C3.61884 14.0653 3.5775 14.0574 3.53889 14.0417C3.50028 14.026 3.46516 14.0028 3.43555 13.9734C3.40595 13.9441 3.38246 13.9092 3.36642 13.8707C3.35039 13.8322 3.34213 13.791 3.34213 13.7493C3.34213 13.7076 3.35039 13.6663 3.36642 13.6279C3.38246 13.5894 3.40595 13.5545 3.43555 13.5251C3.46516 13.4958 3.50028 13.4726 3.53889 13.4569C3.5775 13.4412 3.61884 13.4333 3.66052 13.4336ZM3.81968 20.6932H3.66052C3.61884 20.6935 3.5775 20.6856 3.53889 20.6699C3.50028 20.6542 3.46516 20.631 3.43556 20.6017C3.40596 20.5724 3.38246 20.5374 3.36643 20.499C3.35039 20.4605 3.34214 20.4192 3.34214 20.3775C3.34214 20.3359 3.35039 20.2946 3.36643 20.2561C3.38246 20.2176 3.40596 20.1827 3.43556 20.1534C3.46516 20.124 3.50028 20.1008 3.53889 20.0851C3.5775 20.0694 3.61884 20.0616 3.66052 20.0619H3.81968C3.86136 20.0616 3.90269 20.0694 3.94131 20.0851C3.97992 20.1008 4.01504 20.124 4.04464 20.1534C4.07424 20.1827 4.09774 20.2176 4.11377 20.2561C4.12981 20.2946 4.13806 20.3359 4.13806 20.3775C4.13806 20.4192 4.12981 20.4605 4.11377 20.499C4.09774 20.5374 4.07424 20.5724 4.04464 20.6017C4.01504 20.631 3.97992 20.6542 3.94131 20.6699C3.90269 20.6856 3.86136 20.6935 3.81968 20.6932ZM5.0929 20.6932H4.93375C4.89207 20.6935 4.85073 20.6856 4.81212 20.6699C4.7735 20.6542 4.73838 20.631 4.70878 20.6017C4.67918 20.5724 4.65568 20.5374 4.63965 20.499C4.62362 20.4605 4.61536 20.4192 4.61536 20.3775C4.61536 20.3359 4.62362 20.2946 4.63965 20.2561C4.65568 20.2176 4.67918 20.1827 4.70878 20.1534C4.73838 20.124 4.7735 20.1008 4.81212 20.0851C4.85073 20.0694 4.89207 20.0616 4.93375 20.0619H5.0929C5.13458 20.0616 5.17592 20.0694 5.21453 20.0851C5.25314 20.1008 5.28826 20.124 5.31787 20.1534C5.34747 20.1827 5.37096 20.2176 5.387 20.2561C5.40303 20.2946 5.41129 20.3359 5.41129 20.3775C5.41129 20.4192 5.40303 20.4605 5.387 20.499C5.37096 20.5374 5.34747 20.5724 5.31787 20.6017C5.28826 20.631 5.25314 20.6542 5.21453 20.6699C5.17592 20.6856 5.13458 20.6935 5.0929 20.6932ZM6.36613 20.6932H6.20697C6.16529 20.6935 6.12395 20.6856 6.08534 20.6699C6.04673 20.6542 6.01161 20.631 5.98201 20.6017C5.95241 20.5724 5.92891 20.5374 5.91288 20.499C5.89684 20.4605 5.88859 20.4192 5.88859 20.3775C5.88859 20.3359 5.89684 20.2946 5.91288 20.2561C5.92891 20.2176 5.95241 20.1827 5.98201 20.1534C6.01161 20.124 6.04673 20.1008 6.08534 20.0851C6.12395 20.0694 6.16529 20.0616 6.20697 20.0619H6.36613C6.40781 20.0616 6.44915 20.0694 6.48776 20.0851C6.52637 20.1008 6.56149 20.124 6.59109 20.1534C6.62069 20.1827 6.64419 20.2176 6.66022 20.2561C6.67626 20.2946 6.68451 20.3359 6.68451 20.3775C6.68451 20.4192 6.67626 20.4605 6.66022 20.499C6.64419 20.5374 6.62069 20.5724 6.59109 20.6017C6.56149 20.631 6.52637 20.6542 6.48776 20.6699C6.44915 20.6856 6.40781 20.6935 6.36613 20.6932ZM6.75313 17.0231L6.30823 17.4751L6.41392 18.1173C6.42345 18.1759 6.41622 18.236 6.39307 18.2907C6.36991 18.3453 6.33177 18.3923 6.28305 18.4262C6.23408 18.4603 6.17656 18.4801 6.11697 18.4833C6.05737 18.4865 5.99806 18.473 5.94571 18.4444L5.41121 18.1513L4.87671 18.4444C4.82435 18.473 4.76504 18.4865 4.70545 18.4833C4.64586 18.48 4.58834 18.4603 4.53936 18.4262C4.49064 18.3923 4.4525 18.3453 4.42934 18.2907C4.40619 18.236 4.39896 18.1759 4.40849 18.1173L4.51418 17.4751L4.06928 17.0231C4.02848 16.9818 3.99996 16.9299 3.9869 16.8733C3.97384 16.8167 3.97675 16.7575 3.9953 16.7025C4.01408 16.6473 4.04768 16.5983 4.09244 16.5609C4.13719 16.5236 4.19137 16.4993 4.24903 16.4906L4.85099 16.3994L5.12306 15.8246C5.14907 15.7703 5.18993 15.7244 5.24092 15.6922C5.29191 15.6601 5.35095 15.6431 5.41121 15.6431C5.47147 15.6431 5.53051 15.6601 5.5815 15.6922C5.63248 15.7244 5.67335 15.7703 5.69936 15.8246L5.97143 16.3994L6.57338 16.4906C6.63104 16.4993 6.68522 16.5236 6.72997 16.5609C6.77473 16.5983 6.80833 16.6473 6.82711 16.7025C6.84566 16.7575 6.84857 16.8167 6.83551 16.8733C6.82245 16.9299 6.79393 16.9818 6.75313 17.0231ZM7.63935 20.6932H7.4802C7.43852 20.6935 7.39718 20.6856 7.35857 20.6699C7.31995 20.6542 7.28483 20.631 7.25523 20.6017C7.22563 20.5724 7.20214 20.5374 7.1861 20.499C7.17007 20.4605 7.16181 20.4192 7.16181 20.3775C7.16181 20.3359 7.17007 20.2946 7.1861 20.2561C7.20214 20.2176 7.22563 20.1827 7.25523 20.1534C7.28483 20.124 7.31995 20.1008 7.35857 20.0851C7.39718 20.0694 7.43852 20.0616 7.4802 20.0619H7.63935C7.68103 20.0616 7.72237 20.0694 7.76098 20.0851C7.79959 20.1008 7.83471 20.124 7.86432 20.1534C7.89392 20.1827 7.91741 20.2176 7.93345 20.2561C7.94948 20.2946 7.95774 20.3359 7.95774 20.3775C7.95774 20.4192 7.94948 20.4605 7.93345 20.499C7.91741 20.5374 7.89392 20.5724 7.86432 20.6017C7.83471 20.631 7.79959 20.6542 7.76098 20.6699C7.72237 20.6856 7.68103 20.6935 7.63935 20.6932ZM7.63935 14.0649H7.4802C7.43852 14.0653 7.39718 14.0574 7.35856 14.0417C7.31995 14.026 7.28483 14.0028 7.25523 13.9735C7.22563 13.9441 7.20213 13.9092 7.1861 13.8707C7.17006 13.8322 7.16181 13.791 7.16181 13.7493C7.16181 13.7076 7.17006 13.6663 7.1861 13.6279C7.20213 13.5894 7.22563 13.5545 7.25523 13.5251C7.28483 13.4958 7.31995 13.4726 7.35856 13.4569C7.39718 13.4412 7.43852 13.4333 7.4802 13.4337H7.63935C7.68103 13.4333 7.72237 13.4412 7.76098 13.4569C7.7996 13.4726 7.83472 13.4958 7.86432 13.5251C7.89392 13.5545 7.91742 13.5894 7.93345 13.6279C7.94949 13.6663 7.95774 13.7076 7.95774 13.7493C7.95774 13.791 7.94949 13.8322 7.93345 13.8707C7.91742 13.9092 7.89392 13.9441 7.86432 13.9735C7.83472 14.0028 7.7996 14.026 7.76098 14.0417C7.72237 14.0574 7.68103 14.0653 7.63935 14.0649ZM8.91258 20.6932H8.75342C8.71174 20.6935 8.6704 20.6856 8.63179 20.6699C8.59318 20.6542 8.55806 20.631 8.52846 20.6017C8.49886 20.5724 8.47536 20.5374 8.45933 20.499C8.44329 20.4605 8.43504 20.4192 8.43504 20.3775C8.43504 20.3359 8.44329 20.2946 8.45933 20.2561C8.47536 20.2176 8.49886 20.1827 8.52846 20.1534C8.55806 20.124 8.59318 20.1008 8.63179 20.0851C8.6704 20.0694 8.71174 20.0616 8.75342 20.0619H8.91258C8.95426 20.0616 8.9956 20.0694 9.03421 20.0851C9.07282 20.1008 9.10794 20.124 9.13754 20.1534C9.16714 20.1827 9.19064 20.2176 9.20667 20.2561C9.22271 20.2946 9.23096 20.3359 9.23096 20.3775C9.23096 20.4192 9.22271 20.4605 9.20667 20.499C9.19064 20.5374 9.16714 20.5724 9.13754 20.6017C9.10794 20.631 9.07282 20.6542 9.03421 20.6699C8.9956 20.6856 8.95426 20.6935 8.91258 20.6932ZM8.91258 17.0634C8.91045 16.8111 8.98331 16.5639 9.12192 16.3531C9.26053 16.1423 9.45864 15.9774 9.6911 15.8794C9.92357 15.7814 10.1799 15.7547 10.4276 15.8026C10.6753 15.8505 10.9032 15.9709 11.0823 16.1485C11.2615 16.3262 11.3838 16.553 11.4338 16.8003C11.4838 17.0476 11.4592 17.3042 11.3632 17.5374C11.2671 17.7707 11.1039 17.9702 10.8943 18.1106C10.6847 18.251 10.4381 18.3259 10.1858 18.3259C9.84954 18.3273 9.52649 18.1951 9.28772 17.9584C9.04895 17.7216 8.914 17.3997 8.91258 17.0634ZM10.1858 20.6932H10.0266C9.98497 20.6935 9.94363 20.6856 9.90502 20.6699C9.86641 20.6542 9.83128 20.631 9.80168 20.6017C9.77208 20.5724 9.74859 20.5374 9.73255 20.499C9.71652 20.4605 9.70826 20.4192 9.70826 20.3775C9.70826 20.3359 9.71652 20.2946 9.73255 20.2561C9.74859 20.2176 9.77208 20.1827 9.80168 20.1534C9.83128 20.124 9.86641 20.1008 9.90502 20.0851C9.94363 20.0694 9.98497 20.0616 10.0266 20.0619H10.1858C10.2275 20.0616 10.2688 20.0694 10.3074 20.0851C10.346 20.1008 10.3812 20.124 10.4108 20.1534C10.4404 20.1827 10.4639 20.2176 10.4799 20.2561C10.4959 20.2946 10.5042 20.3359 10.5042 20.3775C10.5042 20.4192 10.4959 20.4605 10.4799 20.499C10.4639 20.5374 10.4404 20.5724 10.4108 20.6017C10.3812 20.631 10.346 20.6542 10.3074 20.6699C10.2688 20.6856 10.2275 20.6935 10.1858 20.6932ZM11.459 20.6932H11.2999C11.2582 20.6935 11.2169 20.6856 11.1782 20.6699C11.1396 20.6542 11.1045 20.631 11.0749 20.6017C11.0453 20.5724 11.0218 20.5374 11.0058 20.499C10.9897 20.4605 10.9815 20.4192 10.9815 20.3775C10.9815 20.3359 10.9897 20.2946 11.0058 20.2561C11.0218 20.2176 11.0453 20.1827 11.0749 20.1534C11.1045 20.124 11.1396 20.1008 11.1782 20.0851C11.2169 20.0694 11.2582 20.0616 11.2999 20.0619H11.459C11.5007 20.0616 11.542 20.0694 11.5807 20.0851C11.6193 20.1008 11.6544 20.124 11.684 20.1534C11.7136 20.1827 11.7371 20.2176 11.7531 20.2561C11.7692 20.2946 11.7774 20.3359 11.7774 20.3775C11.7774 20.4192 11.7692 20.4605 11.7531 20.499C11.7371 20.5374 11.7136 20.5724 11.684 20.6017C11.6544 20.631 11.6193 20.6542 11.5807 20.6699C11.542 20.6856 11.5007 20.6935 11.459 20.6932ZM11.459 14.0649H11.2999C11.2582 14.0653 11.2169 14.0574 11.1782 14.0417C11.1396 14.026 11.1045 14.0028 11.0749 13.9735C11.0453 13.9441 11.0218 13.9092 11.0058 13.8707C10.9897 13.8322 10.9815 13.791 10.9815 13.7493C10.9815 13.7076 10.9897 13.6663 11.0058 13.6279C11.0218 13.5894 11.0453 13.5545 11.0749 13.5251C11.1045 13.4958 11.1396 13.4726 11.1782 13.4569C11.2169 13.4412 11.2582 13.4333 11.2999 13.4337H11.459C11.5007 13.4333 11.542 13.4412 11.5807 13.4569C11.6193 13.4726 11.6544 13.4958 11.684 13.5251C11.7136 13.5545 11.7371 13.5894 11.7531 13.6279C11.7692 13.6663 11.7774 13.7076 11.7774 13.7493C11.7774 13.791 11.7692 13.8322 11.7531 13.8707C11.7371 13.9092 11.7136 13.9441 11.684 13.9735C11.6544 14.0028 11.6193 14.026 11.5807 14.0417C11.542 14.0574 11.5007 14.0653 11.459 14.0649ZM12.7323 20.6932H12.5731C12.5314 20.6935 12.4901 20.6856 12.4515 20.6699C12.4129 20.6542 12.3777 20.631 12.3481 20.6017C12.3185 20.5724 12.295 20.5374 12.279 20.499C12.263 20.4605 12.2547 20.4192 12.2547 20.3775C12.2547 20.3359 12.263 20.2946 12.279 20.2561C12.295 20.2176 12.3185 20.1827 12.3481 20.1534C12.3777 20.124 12.4129 20.1008 12.4515 20.0851C12.4901 20.0694 12.5314 20.0616 12.5731 20.0619H12.7323C12.7739 20.0616 12.8153 20.0694 12.8539 20.0851C12.8925 20.1008 12.9276 20.124 12.9572 20.1534C12.9868 20.1827 13.0103 20.2176 13.0263 20.2561C13.0424 20.2946 13.0506 20.3359 13.0506 20.3775C13.0506 20.4192 13.0424 20.4605 13.0263 20.499C13.0103 20.5374 12.9868 20.5724 12.9572 20.6017C12.9276 20.631 12.8925 20.6542 12.8539 20.6699C12.8153 20.6856 12.7739 20.6935 12.7323 20.6932ZM12.7323 14.0649H12.5731C12.5314 14.0653 12.4901 14.0574 12.4515 14.0417C12.4129 14.026 12.3777 14.0028 12.3481 13.9735C12.3185 13.9441 12.295 13.9092 12.279 13.8707C12.263 13.8322 12.2547 13.791 12.2547 13.7493C12.2547 13.7076 12.263 13.6663 12.279 13.6279C12.295 13.5894 12.3185 13.5545 12.3481 13.5251C12.3777 13.4958 12.4129 13.4726 12.4515 13.4569C12.4901 13.4412 12.5314 13.4333 12.5731 13.4337H12.7323C12.7739 13.4333 12.8153 13.4412 12.8539 13.4569C12.8925 13.4726 12.9276 13.4958 12.9572 13.5251C12.9868 13.5545 13.0103 13.5894 13.0264 13.6279C13.0424 13.6663 13.0506 13.7076 13.0506 13.7493C13.0506 13.791 13.0424 13.8322 13.0264 13.8707C13.0103 13.9092 12.9868 13.9441 12.9572 13.9735C12.9276 14.0028 12.8925 14.026 12.8539 14.0417C12.8153 14.0574 12.7739 14.0653 12.7323 14.0649ZM14.0055 20.6932H13.8463C13.8046 20.6935 13.7633 20.6856 13.7247 20.6699C13.6861 20.6542 13.651 20.631 13.6214 20.6017C13.5918 20.5724 13.5683 20.5374 13.5522 20.499C13.5362 20.4605 13.5279 20.4192 13.5279 20.3775C13.5279 20.3359 13.5362 20.2946 13.5522 20.2561C13.5683 20.2176 13.5918 20.1827 13.6214 20.1534C13.651 20.124 13.6861 20.1008 13.7247 20.0851C13.7633 20.0694 13.8046 20.0616 13.8463 20.0619H14.0055C14.0472 20.0616 14.0885 20.0694 14.1271 20.0851C14.1657 20.1008 14.2008 20.124 14.2304 20.1534C14.26 20.1827 14.2835 20.2176 14.2996 20.2561C14.3156 20.2946 14.3239 20.3359 14.3239 20.3775C14.3239 20.4192 14.3156 20.4605 14.2996 20.499C14.2835 20.5374 14.26 20.5724 14.2304 20.6017C14.2008 20.631 14.1657 20.6542 14.1271 20.6699C14.0885 20.6856 14.0472 20.6935 14.0055 20.6932ZM15.2787 20.6932H15.1195C15.0779 20.6935 15.0365 20.6856 14.9979 20.6699C14.9593 20.6542 14.9242 20.631 14.8946 20.6017C14.865 20.5724 14.8415 20.5374 14.8255 20.499C14.8094 20.4605 14.8012 20.4192 14.8012 20.3775C14.8012 20.3359 14.8094 20.2946 14.8255 20.2561C14.8415 20.2176 14.865 20.1827 14.8946 20.1534C14.9242 20.124 14.9593 20.1008 14.9979 20.0851C15.0365 20.0694 15.0779 20.0616 15.1195 20.0619H15.2787C15.3204 20.0616 15.3617 20.0694 15.4003 20.0851C15.4389 20.1008 15.4741 20.124 15.5037 20.1534C15.5333 20.1827 15.5568 20.2176 15.5728 20.2561C15.5888 20.2946 15.5971 20.3359 15.5971 20.3775C15.5971 20.4192 15.5888 20.4605 15.5728 20.499C15.5568 20.5374 15.5333 20.5724 15.5037 20.6017C15.4741 20.631 15.4389 20.6542 15.4003 20.6699C15.3617 20.6856 15.3204 20.6935 15.2787 20.6932ZM15.8322 18.4262C15.7833 18.4603 15.7257 18.4801 15.6662 18.4833C15.6066 18.4865 15.5472 18.473 15.4949 18.4444L14.9604 18.1513L14.4259 18.4444C14.3735 18.473 14.3142 18.4865 14.2546 18.4833C14.195 18.48 14.1375 18.4603 14.0886 18.4262C14.0398 18.3923 14.0017 18.3453 13.9785 18.2907C13.9554 18.236 13.9481 18.1759 13.9577 18.1173L14.0634 17.4751L13.6185 17.0231C13.5777 16.9818 13.5491 16.9299 13.5361 16.8733C13.523 16.8167 13.5259 16.7575 13.5445 16.7025C13.5633 16.6473 13.5969 16.5983 13.6416 16.5609C13.6864 16.5236 13.7406 16.4993 13.7982 16.4906L14.4002 16.3994L14.6722 15.8246C14.6983 15.7703 14.7391 15.7244 14.7901 15.6922C14.8411 15.6601 14.9001 15.6431 14.9604 15.6431C15.0207 15.6431 15.0797 15.6601 15.1307 15.6922C15.1817 15.7244 15.2225 15.7703 15.2486 15.8246L15.5206 16.3994L16.1226 16.4906C16.1802 16.4993 16.2344 16.5236 16.2792 16.5609C16.3239 16.5983 16.3575 16.6473 16.3763 16.7025C16.3949 16.7575 16.3978 16.8167 16.3847 16.8733C16.3716 16.9299 16.3431 16.9818 16.3023 17.0231L15.8574 17.4751L15.9631 18.1173C15.9726 18.1759 15.9654 18.236 15.9423 18.2907C15.9191 18.3453 15.881 18.3923 15.8322 18.4262ZM16.5519 20.6932H16.3928C16.3511 20.6935 16.3098 20.6856 16.2711 20.6699C16.2325 20.6542 16.1974 20.631 16.1678 20.6017C16.1382 20.5724 16.1147 20.5374 16.0987 20.499C16.0826 20.4605 16.0744 20.4192 16.0744 20.3775C16.0744 20.3359 16.0826 20.2946 16.0987 20.2561C16.1147 20.2176 16.1382 20.1827 16.1678 20.1534C16.1974 20.124 16.2325 20.1008 16.2711 20.0851C16.3098 20.0694 16.3511 20.0616 16.3928 20.0619H16.5519C16.5936 20.0616 16.6349 20.0694 16.6736 20.0851C16.7122 20.1008 16.7473 20.124 16.7769 20.1534C16.8065 20.1827 16.83 20.2176 16.846 20.2561C16.8621 20.2946 16.8703 20.3359 16.8703 20.3775C16.8703 20.4192 16.8621 20.4605 16.846 20.499C16.83 20.5374 16.8065 20.5724 16.7769 20.6017C16.7473 20.631 16.7122 20.6542 16.6736 20.6699C16.6349 20.6856 16.5936 20.6935 16.5519 20.6932ZM16.5519 14.0649H16.3928C16.3511 14.0653 16.3098 14.0574 16.2711 14.0417C16.2325 14.026 16.1974 14.0028 16.1678 13.9735C16.1382 13.9441 16.1147 13.9092 16.0987 13.8707C16.0826 13.8322 16.0744 13.791 16.0744 13.7493C16.0744 13.7076 16.0826 13.6663 16.0987 13.6279C16.1147 13.5894 16.1382 13.5545 16.1678 13.5251C16.1974 13.4958 16.2325 13.4726 16.2711 13.4569C16.3098 13.4412 16.3511 13.4333 16.3928 13.4337H16.5519C16.5936 13.4333 16.6349 13.4412 16.6736 13.4569C16.7122 13.4726 16.7473 13.4958 16.7769 13.5251C16.8065 13.5545 16.83 13.5894 16.846 13.6279C16.8621 13.6663 16.8703 13.7076 16.8703 13.7493C16.8703 13.791 16.8621 13.8322 16.846 13.8707C16.83 13.9092 16.8065 13.9441 16.7769 13.9735C16.7473 14.0028 16.7122 14.026 16.6736 14.0417C16.6349 14.0574 16.5936 14.0653 16.5519 14.0649Z" fill="#E7195A"/>
<path d="M6.33279 10.767L6.3018 10.8297H7.70577C7.71652 10.7789 7.71444 10.7262 7.69969 10.6765C7.68495 10.6267 7.65801 10.5814 7.62132 10.5446L7.1894 10.1173L7.30674 9.48509C7.31766 9.42591 7.31136 9.36485 7.28861 9.30915C7.26585 9.25345 7.22759 9.20544 7.17837 9.17084C7.12891 9.13598 7.0706 9.11584 7.01017 9.11273C6.94974 9.10962 6.88967 9.12368 6.8369 9.15328L6.28631 9.46243L5.75291 9.1875C5.70084 9.16066 5.64241 9.1486 5.58398 9.15265C5.52554 9.1567 5.46933 9.1767 5.42147 9.21046C5.3738 9.24396 5.33638 9.29005 5.31338 9.34357C5.29039 9.3971 5.28271 9.45597 5.29122 9.5136L5.38533 10.1462L4.92434 10.611C4.86711 10.6694 4.83506 10.7479 4.83508 10.8297H6.23086L6.21343 10.7925C6.19043 10.7438 6.15541 10.7016 6.11165 10.6701C6.06789 10.6386 6.01683 10.6187 5.96327 10.6123L5.83171 10.5964L5.9503 10.4768C5.98478 10.4422 6.01069 10.4 6.02596 10.3536C6.04124 10.3071 6.04545 10.2578 6.03827 10.2094L6.01192 10.0325L6.14598 10.1016C6.19309 10.1258 6.24548 10.138 6.29846 10.1371C6.35145 10.1362 6.40337 10.1221 6.44959 10.0962L6.55722 10.0358L6.53298 10.1663C6.52363 10.2167 6.52678 10.2687 6.54216 10.3176C6.55754 10.3665 6.58467 10.4109 6.62118 10.4469L6.73938 10.5638L6.56266 10.5951C6.51356 10.6037 6.46716 10.6238 6.42723 10.6536C6.3873 10.6835 6.35495 10.7223 6.33279 10.767Z" fill="#E7195A"/>
</g>
<path d="M37.881 6.33405L38.0762 11.2343H37.7053C37.1326 9.50325 36.625 8.32537 36.1825 7.70064C35.74 7.0629 35.1022 6.74403 34.2693 6.74403H34.035V19.59H35.6944V20H28.5686V19.59H30.228V6.74403H29.9742C29.1413 6.74403 28.497 7.07591 28.0415 7.73969C27.586 8.39045 27.0849 9.55531 26.5382 11.2343H26.1673L26.3625 6.33405H37.881ZM94.2928 6.33405H99.5054V6.70498H98.4317V19.6291H99.5054V20H93.551V19.6291H94.6247V7.42732H94.5466L91.6182 20H89.1779L85.7418 7.36876H85.6638V19.6291H86.7375V20H84.0824V19.6291H85.1562V6.70498H84.0824V6.33405H89.3536L91.9501 16.3883L94.2928 6.33405Z" fill="#E7195A"/>
<path d="M41.8561 9.36008C41.1663 9.36008 40.6718 9.18438 40.3724 8.83297C40.0861 8.48155 39.9429 8.04555 39.9429 7.52494C39.9429 7.00433 40.0991 6.57483 40.4115 6.23643C40.7368 5.89804 41.2249 5.72884 41.8757 5.72884C42.5264 5.72884 43.021 5.88502 43.3594 6.19739C43.6978 6.49674 43.867 6.93275 43.867 7.50542C43.867 8.06507 43.7043 8.51409 43.3789 8.85249C43.0535 9.19088 42.5459 9.36008 41.8561 9.36008ZM38.9082 10.7072H43.6913V19.6486H44.7846V20H38.9863V19.6486H40.06V11.0586H38.9082V10.7072ZM50.6489 10.8633C50.0762 10.8633 49.6662 11.1757 49.4189 11.8004C49.1716 12.4252 49.048 13.4599 49.048 14.9046V15.9197C49.048 17.2082 49.1912 18.1323 49.4775 18.692C49.7638 19.2516 50.291 19.5315 51.0589 19.5315C51.8267 19.5315 52.4385 19.2711 52.894 18.7505C53.3495 18.2299 53.6424 17.6377 53.7725 16.974L54.1239 17.013C53.8766 18.1323 53.4211 18.9393 52.7573 19.4338C52.0805 19.9414 51.15 20.1952 49.9656 20.1952C48.4558 20.1952 47.2975 19.7918 46.4905 18.9848C45.6836 18.1649 45.2801 16.974 45.2801 15.4121C45.2801 13.8373 45.7356 12.6269 46.6467 11.7809C47.5708 10.9349 48.8528 10.5119 50.4927 10.5119C51.651 10.5119 52.5361 10.7397 53.1478 11.1952C53.7595 11.6377 54.0654 12.1974 54.0654 12.8742C54.0654 13.551 53.9157 14.0455 53.6163 14.3579C53.33 14.6703 52.9265 14.8265 52.4059 14.8265C51.8983 14.8265 51.4884 14.6898 51.176 14.4165C50.8636 14.1432 50.7074 13.7397 50.7074 13.2061C50.7074 12.9718 50.74 12.7375 50.8051 12.5032H51.4493C51.5404 12.2429 51.586 12.0087 51.586 11.8004C51.586 11.1757 51.2736 10.8633 50.6489 10.8633ZM60.8131 20V19.6486H61.7111L59.505 15.1193L59.1341 15.2169V19.6486H60.0322V20H54.4291V19.6486H55.5029V5.70932H54.351V5.35791H59.1341V14.8265L59.4465 14.7093L63.8391 11.0586H62.004V10.7072H65.85V11.0586H64.4834L62.1601 13.0304L65.5376 19.6486H66.2404V20H60.8131ZM71.1743 20.1952C69.4954 20.1952 68.2329 19.7657 67.3869 18.9067C66.5539 18.0347 66.1375 16.8308 66.1375 15.295C66.1375 13.7462 66.606 12.5618 67.5431 11.7419C68.4932 10.9219 69.6971 10.5119 71.1548 10.5119C74.1093 10.5119 75.5279 11.9957 75.4108 14.9631H69.9054V15.7245C69.9054 17 70.068 17.9631 70.3934 18.6139C70.7188 19.2646 71.285 19.59 72.0919 19.59C73.6017 19.59 74.5908 18.7831 75.0594 17.1692L75.4108 17.2278C75.1635 18.1649 74.7145 18.8937 74.0637 19.4143C73.426 19.9349 72.4628 20.1952 71.1743 20.1952ZM69.9249 14.5727H71.9357V13.616C71.9357 12.5618 71.8706 11.846 71.7405 11.4685C71.6234 11.0781 71.3761 10.8829 70.9986 10.8829C70.6342 10.8829 70.3609 11.0911 70.1787 11.5076C70.0095 11.9111 69.9249 12.6139 69.9249 13.616V14.5727ZM77.0824 17.2082V11.0586H76.0087V10.7072H77.0824V8.18871L80.7137 7.29067V10.7072H83.2516V11.0586H80.7137V17.6377C80.7137 18.2495 80.7722 18.6985 80.8894 18.9848C81.0195 19.2711 81.2798 19.4143 81.6703 19.4143C82.0607 19.4143 82.3991 19.2191 82.6855 18.8286C82.9848 18.4382 83.18 17.9046 83.2711 17.2278L83.603 17.2668C83.4989 18.1649 83.2126 18.8807 82.744 19.4143C82.2755 19.9349 81.5011 20.1952 80.4208 20.1952C79.3406 20.1952 78.5141 19.9805 77.9414 19.551C77.3688 19.1215 77.0824 18.3406 77.0824 17.2082ZM104.871 15.4121H105.437V13.9089C105.437 12.6724 105.366 11.846 105.223 11.4295C105.092 11 104.832 10.7852 104.442 10.7852C104.207 10.7852 103.993 10.8503 103.797 10.9805C103.615 11.0976 103.524 11.2668 103.524 11.4881C103.524 11.6963 103.563 11.9111 103.641 12.1323H104.129C104.233 12.4056 104.285 12.7375 104.285 13.128C104.285 13.5054 104.123 13.8373 103.797 14.1236C103.472 14.397 103.062 14.5336 102.567 14.5336C101.448 14.5336 100.888 13.9935 100.888 12.9132C100.888 11.3124 102.249 10.5119 104.969 10.5119C106.518 10.5119 107.585 10.7787 108.17 11.3124C108.769 11.833 109.069 12.7961 109.069 14.2017V18.1649C109.069 18.8416 109.257 19.18 109.635 19.18C110.077 19.18 110.338 18.5098 110.416 17.1692L110.708 17.1887C110.656 18.3341 110.442 19.1215 110.064 19.551C109.687 19.9805 109.069 20.1952 108.21 20.1952C106.648 20.1952 105.75 19.7137 105.515 18.7505C105.346 19.2451 105.092 19.6095 104.754 19.8438C104.416 20.0781 103.921 20.1952 103.27 20.1952C101.344 20.1952 100.381 19.4078 100.381 17.833C100.381 16.9089 100.745 16.2777 101.474 15.9393C102.216 15.5878 103.348 15.4121 104.871 15.4121ZM104.09 17.8134C104.09 18.4902 104.123 18.9262 104.188 19.1215C104.266 19.3167 104.403 19.4143 104.598 19.4143C104.806 19.4143 104.995 19.2516 105.164 18.9262C105.346 18.5879 105.437 18.1258 105.437 17.5401V15.7245H105.301C104.494 15.7245 104.09 16.3167 104.09 17.5011V17.8134ZM110.9 5.35791H115.605V12.5032C115.814 11.9046 116.132 11.423 116.562 11.0586C116.991 10.6941 117.642 10.5119 118.514 10.5119C120.532 10.5119 121.54 11.5987 121.54 13.7722V19.6486H122.634V20H117.109V19.6486H117.909V13.3037C117.909 12.5228 117.857 12.0217 117.753 11.8004C117.649 11.5662 117.46 11.449 117.187 11.449C116.77 11.449 116.399 11.7223 116.074 12.269C115.761 12.8156 115.605 13.4794 115.605 14.2603V19.6486H116.445V20H110.9V19.6486H111.974V5.70932H110.9V5.35791ZM127.616 15.4121H128.182V13.9089C128.182 12.6724 128.111 11.846 127.967 11.4295C127.837 11 127.577 10.7852 127.186 10.7852C126.952 10.7852 126.737 10.8503 126.542 10.9805C126.36 11.0976 126.269 11.2668 126.269 11.4881C126.269 11.6963 126.308 11.9111 126.386 12.1323H126.874C126.978 12.4056 127.03 12.7375 127.03 13.128C127.03 13.5054 126.868 13.8373 126.542 14.1236C126.217 14.397 125.807 14.5336 125.312 14.5336C124.193 14.5336 123.633 13.9935 123.633 12.9132C123.633 11.3124 124.993 10.5119 127.714 10.5119C129.262 10.5119 130.33 10.7787 130.915 11.3124C131.514 11.833 131.813 12.7961 131.813 14.2017V18.1649C131.813 18.8416 132.002 19.18 132.379 19.18C132.822 19.18 133.082 18.5098 133.16 17.1692L133.453 17.1887C133.401 18.3341 133.186 19.1215 132.809 19.551C132.432 19.9805 131.813 20.1952 130.954 20.1952C129.393 20.1952 128.494 19.7137 128.26 18.7505C128.091 19.2451 127.837 19.6095 127.499 19.8438C127.16 20.0781 126.666 20.1952 126.015 20.1952C124.089 20.1952 123.126 19.4078 123.126 17.833C123.126 16.9089 123.49 16.2777 124.219 15.9393C124.961 15.5878 126.093 15.4121 127.616 15.4121ZM126.835 17.8134C126.835 18.4902 126.868 18.9262 126.933 19.1215C127.011 19.3167 127.147 19.4143 127.343 19.4143C127.551 19.4143 127.74 19.2516 127.909 18.9262C128.091 18.5879 128.182 18.1258 128.182 17.5401V15.7245H128.045C127.238 15.7245 126.835 16.3167 126.835 17.5011V17.8134ZM133.567 5.35791H138.35V19.6486H139.443V20H133.645V19.6486H134.719V5.70932H133.567V5.35791Z" fill="white"/>
<defs>
<clipPath id="clip0_40_2442">
<rect width="20.3716" height="20.3716" fill="white" transform="translate(0 2.81396)"/>
</clipPath>
</defs>
</svg>
