<svg width="21" height="22" viewBox="0 0 21 22" fill="none" xmlns="http://www.w3.org/2000/svg">
<path d="M20.4988 11.133C20.4988 10.4451 20.4322 9.73504 20.3212 9.06934H10.7129V12.997H16.2161C15.9942 14.2618 15.2619 15.3713 14.1746 16.0814L17.4587 18.6333C19.3893 16.8359 20.4988 14.2175 20.4988 11.133Z" fill="#4280EF"/>
<path d="M10.7146 21.0736C13.4662 21.0736 15.774 20.1638 17.4604 18.6105L14.1763 16.0809C13.2665 16.7022 12.0904 17.0572 10.7146 17.0572C8.05179 17.0572 5.81058 15.2598 4.98954 12.8633L1.61664 15.4595C3.34747 18.899 6.85352 21.0736 10.7146 21.0736Z" fill="#34A353"/>
<path d="M4.98867 12.8413C4.56706 11.5765 4.56706 10.2007 4.98867 8.93582L1.61577 6.31738C0.173406 9.20211 0.173406 12.5972 1.61577 15.4597L4.98867 12.8413Z" fill="#F6B704"/>
<path d="M10.7146 4.74212C12.157 4.71993 13.5771 5.27469 14.6201 6.27325L17.527 3.34414C15.6852 1.61331 13.2443 0.681322 10.7146 0.703512C6.85352 0.703512 3.34747 2.87815 1.61664 6.31763L4.98954 8.93607C5.81058 6.51734 8.05179 4.74212 10.7146 4.74212Z" fill="#E54335"/>
</svg>
