<svg width="25" height="25" viewBox="0 0 25 25" fill="none" xmlns="http://www.w3.org/2000/svg">
<g clip-path="url(#clip0_40_1047)">
<path d="M7.44124 6.92188H7.1403L6.57794 9.73438H8.0036L7.44124 6.92188Z" fill="white"/>
<path d="M18.8161 12.5469C19.1197 13.3625 19.5235 14.0226 19.9704 14.5844C20.4174 14.0226 20.8681 13.3624 21.1717 12.5469H18.8161Z" fill="white"/>
<path d="M22.8298 4.76562H14.0978L15.9185 19.3756C15.9507 19.9731 15.7874 20.5357 15.3974 20.9762L12.314 24.5H22.8298C23.993 24.5 24.9392 23.5538 24.9392 22.3906V6.92188C24.9392 5.75872 23.993 4.76562 22.8298 4.76562ZM22.8298 12.5469H22.642C22.242 13.8305 21.6075 14.8348 20.9482 15.6267C21.4647 16.0989 22.017 16.4862 22.5662 16.9201C22.869 17.1625 22.9184 17.6047 22.6753 17.9082C22.4334 18.2113 21.9894 18.2604 21.6872 18.0174C21.0906 17.5464 20.5305 17.1522 19.9704 16.6383C19.4104 17.1522 18.8972 17.5464 18.3005 18.0174C17.9983 18.2604 17.5544 18.2113 17.3124 17.9082C17.0694 17.6047 17.1188 17.1625 17.4216 16.9201C17.9708 16.4862 18.4762 16.0989 18.9927 15.6267C18.3334 14.8349 17.7458 13.8305 17.3457 12.5469H17.1579C16.7693 12.5469 16.4548 12.2324 16.4548 11.8438C16.4548 11.4551 16.7693 11.1406 17.1579 11.1406H19.2673V10.4375C19.2673 10.0489 19.5818 9.73438 19.9704 9.73438C20.3591 9.73438 20.6736 10.0489 20.6736 10.4375V11.1406H22.8298C23.2185 11.1406 23.5329 11.4551 23.5329 11.8438C23.5329 12.2324 23.2185 12.5469 22.8298 12.5469Z" fill="white"/>
<path d="M12.3844 2.34777C12.2532 1.29444 11.3531 0.5 10.2915 0.5H3.04858C1.88543 0.5 0.939209 1.44622 0.939209 2.60938V18.1719C0.939209 19.335 1.88543 20.2812 3.04858 20.2812C7.25187 20.2812 10.2756 20.2812 14.1369 20.2812C14.342 20.0468 14.514 19.9 14.5212 19.5939C14.523 19.5172 12.3939 2.42389 12.3844 2.34777ZM9.56158 13.9394C9.18874 14.0161 8.81107 13.7741 8.73419 13.388L8.2848 11.1406H6.29679L5.8474 13.388C5.77188 13.7684 5.40518 14.0183 5.02001 13.9394C4.63962 13.8632 4.3924 13.4931 4.46862 13.112L5.87482 6.08075C5.94072 5.75253 6.22915 5.51562 6.56421 5.51562H8.01733C8.3524 5.51562 8.64082 5.75253 8.70672 6.08075L10.113 13.112C10.1892 13.4931 9.94202 13.8632 9.56158 13.9394Z" fill="white"/>
<path d="M9.15503 21.6875L9.27569 22.6522C9.35612 23.2983 9.7854 23.9571 10.4915 24.2861C11.8241 22.8192 11.0179 23.7066 12.8521 21.6875H9.15503Z" fill="white"/>
</g>
<defs>
<clipPath id="clip0_40_1047">
<rect width="24" height="24" fill="white" transform="translate(0.939209 0.5)"/>
</clipPath>
</defs>
</svg>
