<svg width="220" height="41" viewBox="0 0 220 41" fill="none" xmlns="http://www.w3.org/2000/svg">
<g clip-path="url(#clip0_40_1025)">
<path d="M19.134 15.9137C19.0271 15.836 18.8938 15.8036 18.7632 15.8237C18.6325 15.8437 18.5151 15.9144 18.4363 16.0206C18.3976 16.0729 18.3696 16.1324 18.3541 16.1957C18.3385 16.2589 18.3357 16.3246 18.3457 16.389C18.3557 16.4533 18.3784 16.515 18.4125 16.5705C18.4465 16.6261 18.4912 16.6743 18.5441 16.7124L18.7454 16.8586C18.8523 16.9362 18.9856 16.9685 19.1162 16.9485C19.2468 16.9285 19.3643 16.8578 19.4431 16.7518C19.4818 16.6994 19.5097 16.6399 19.5253 16.5766C19.5408 16.5134 19.5437 16.4477 19.5337 16.3834C19.5237 16.319 19.501 16.2573 19.4669 16.2018C19.4329 16.1463 19.3881 16.0981 19.3353 16.06L19.134 15.9137Z" fill="#E7195A"/>
<path d="M17.5237 14.7438C17.4168 14.6661 17.2836 14.6338 17.1529 14.6537C17.0223 14.6736 16.9048 14.7443 16.8259 14.8503C16.7872 14.9026 16.7592 14.9621 16.7436 15.0254C16.728 15.0886 16.7251 15.1543 16.7351 15.2186C16.7451 15.283 16.7678 15.3447 16.8018 15.4003C16.8358 15.4558 16.8805 15.504 16.9333 15.5422L17.1347 15.6885C17.2416 15.7662 17.3748 15.7986 17.5054 15.7786C17.636 15.7587 17.7536 15.6881 17.8324 15.5821C17.8712 15.5297 17.8992 15.4702 17.9148 15.407C17.9303 15.3437 17.9332 15.278 17.9232 15.2137C17.9132 15.1493 17.8906 15.0876 17.8566 15.032C17.8226 14.9765 17.7779 14.9283 17.7251 14.8901L17.5237 14.7438Z" fill="#E7195A"/>
<path d="M10.6907 11.0079C10.7977 11.0856 10.9309 11.1179 11.0615 11.0979C11.1921 11.0779 11.3096 11.0072 11.3884 10.9011C11.4271 10.8487 11.4551 10.7892 11.4706 10.726C11.4862 10.6627 11.489 10.597 11.479 10.5327C11.469 10.4683 11.4463 10.4066 11.4122 10.3511C11.3782 10.2956 11.3335 10.2474 11.2806 10.2093L11.0793 10.0631C10.9724 9.9854 10.8391 9.95307 10.7085 9.97307C10.5779 9.99307 10.4604 10.0638 10.3816 10.1699C10.3429 10.2223 10.3149 10.2818 10.2994 10.345C10.2838 10.4083 10.281 10.474 10.291 10.5383C10.301 10.6026 10.3237 10.6644 10.3578 10.7199C10.3918 10.7754 10.4366 10.8236 10.4894 10.8617L10.6907 11.0079Z" fill="#E7195A"/>
<path d="M15.9123 13.5734C15.8054 13.4957 15.6721 13.4633 15.5415 13.4833C15.4109 13.5033 15.2934 13.5741 15.2146 13.6802C15.1759 13.7326 15.148 13.7921 15.1324 13.8553C15.1169 13.9186 15.114 13.9843 15.124 14.0486C15.134 14.1129 15.1567 14.1747 15.1908 14.2302C15.2248 14.2857 15.2696 14.3339 15.3224 14.372L15.5237 14.5182C15.6307 14.5959 15.7639 14.6282 15.8945 14.6082C16.0251 14.5882 16.1426 14.5175 16.2214 14.4114C16.2601 14.359 16.2881 14.2995 16.3036 14.2363C16.3192 14.173 16.322 14.1073 16.312 14.043C16.302 13.9786 16.2793 13.9169 16.2452 13.8614C16.2112 13.8059 16.1665 13.7577 16.1136 13.7196L15.9123 13.5734Z" fill="#E7195A"/>
<path d="M12.3018 12.1778C12.4087 12.2555 12.542 12.2878 12.6726 12.2679C12.8032 12.248 12.9207 12.1773 12.9996 12.0713C13.0384 12.019 13.0663 11.9595 13.0819 11.8962C13.0975 11.833 13.1004 11.7673 13.0904 11.7029C13.0804 11.6386 13.0578 11.5768 13.0237 11.5213C12.9897 11.4658 12.945 11.4175 12.8922 11.3794L12.6909 11.233C12.584 11.1554 12.4508 11.123 12.3201 11.143C12.1895 11.1629 12.072 11.2335 11.9931 11.3395C11.9543 11.3919 11.9264 11.4514 11.9108 11.5146C11.8952 11.5778 11.8923 11.6435 11.9023 11.7079C11.9123 11.7723 11.935 11.834 11.969 11.8895C12.003 11.9451 12.0477 11.9933 12.1005 12.0314L12.3018 12.1778Z" fill="#E7195A"/>
<path d="M14.3019 12.4035C14.195 12.3258 14.0618 12.2934 13.9311 12.3134C13.8005 12.3334 13.683 12.4042 13.6043 12.5103C13.5656 12.5627 13.5376 12.6222 13.5221 12.6854C13.5065 12.7487 13.5037 12.8144 13.5137 12.8787C13.5237 12.943 13.5464 13.0048 13.5804 13.0603C13.6145 13.1158 13.6592 13.164 13.712 13.2021L13.9134 13.3483C14.0203 13.426 14.1535 13.4583 14.2842 13.4383C14.4148 13.4183 14.5322 13.3476 14.611 13.2415C14.6498 13.1892 14.6777 13.1296 14.6933 13.0664C14.7088 13.0031 14.7117 12.9375 14.7016 12.8731C14.6916 12.8088 14.6689 12.747 14.6349 12.6915C14.6008 12.636 14.5561 12.5878 14.5033 12.5497L14.3019 12.4035Z" fill="#E7195A"/>
<path d="M0.574923 19.2449C0.534893 19.3004 0.507172 19.3638 0.493612 19.4309C0.480052 19.4979 0.480966 19.5671 0.496292 19.6338C0.843189 19.5802 1.15991 19.4055 1.39038 19.1407C1.62085 18.876 1.7502 18.5382 1.75555 18.1872C1.75531 17.8926 1.84494 17.605 2.01248 17.3626C1.92546 16.6626 1.62653 16.0058 1.15575 15.4805L6.76792 7.70714C7.41747 7.98137 8.13437 8.05432 8.82584 7.91654C9.51731 7.77876 10.1515 7.43659 10.6463 6.93433L24.2629 16.7122H25.9605L10.8581 5.86743C10.7488 5.78967 10.6135 5.75783 10.481 5.77873C10.4156 5.78897 10.3529 5.81203 10.2965 5.84658C10.2401 5.88113 10.1911 5.92648 10.1522 5.98003C9.78708 6.4799 9.24891 6.82589 8.64258 6.95056C8.03625 7.07523 7.40522 6.96965 6.8725 6.65439C6.76387 6.58927 6.63483 6.56706 6.51068 6.5921C6.38652 6.61715 6.27619 6.68765 6.2013 6.78979L0.0921824 15.2513C0.0203708 15.3505 -0.0112479 15.4732 0.0036771 15.5948C0.0186021 15.7163 0.0789652 15.8277 0.172642 15.9066C0.644431 16.3123 0.947338 16.8799 1.02178 17.4976C1.09623 18.1154 0.936823 18.7387 0.574923 19.2449Z" fill="#E7195A"/>
<path d="M31.4933 20.8606C30.2105 20.7555 29.2055 19.7799 29.2055 18.5031C29.2051 18.3709 29.1524 18.2441 29.0589 18.1506C28.9653 18.057 28.8386 18.0043 28.7063 18.0039H3.24506C3.11278 18.0043 2.98603 18.057 2.89249 18.1506C2.79895 18.2441 2.74622 18.3709 2.74582 18.5031C2.74582 19.7799 1.74088 20.7555 0.458053 20.8606C0.333707 20.8703 0.217566 20.9265 0.132704 21.0179C0.0478425 21.1093 0.00047041 21.2293 0 21.354L0 31.7748C0.000471036 31.8995 0.0478434 32.0195 0.132705 32.1109C0.217567 32.2023 0.333708 32.2585 0.458053 32.2682C1.07796 32.3199 1.65619 32.6013 2.07941 33.0572C2.50262 33.5131 2.74029 34.1106 2.74582 34.7326C2.74638 34.8645 2.7993 34.9907 2.89292 35.0836C2.98655 35.1764 3.11321 35.2282 3.24506 35.2277H28.7063C28.8382 35.2282 28.9648 35.1764 29.0584 35.0836C29.1521 34.9907 29.205 34.8645 29.2055 34.7326C29.2111 34.1106 29.4487 33.5131 29.872 33.0572C30.2952 32.6013 30.8734 32.3199 31.4933 32.2682C31.6177 32.2585 31.7338 32.2023 31.8187 32.1109C31.9035 32.0195 31.9509 31.8995 31.9514 31.7748V21.354C31.9509 21.2293 31.9035 21.1093 31.8187 21.0179C31.7338 20.9265 31.6177 20.8703 31.4933 20.8606ZM23.7139 21.1807H23.9635C24.0289 21.1801 24.0937 21.1925 24.1543 21.2171C24.2149 21.2417 24.2699 21.2781 24.3164 21.3241C24.3628 21.3702 24.3997 21.4249 24.4248 21.4853C24.45 21.5456 24.4629 21.6103 24.4629 21.6757C24.4629 21.7411 24.45 21.8058 24.4248 21.8662C24.3997 21.9265 24.3628 21.9813 24.3164 22.0273C24.2699 22.0733 24.2149 22.1097 24.1543 22.1343C24.0937 22.159 24.0289 22.1713 23.9635 22.1708H23.7139C23.6485 22.1713 23.5837 22.159 23.5231 22.1343C23.4626 22.1097 23.4075 22.0733 23.3611 22.0273C23.3146 21.9813 23.2778 21.9265 23.2526 21.8662C23.2275 21.8058 23.2145 21.7411 23.2145 21.6757C23.2145 21.6103 23.2275 21.5456 23.2526 21.4853C23.2778 21.4249 23.3146 21.3702 23.3611 21.3241C23.4075 21.2781 23.4626 21.2417 23.5231 21.2171C23.5837 21.1925 23.6485 21.1801 23.7139 21.1807ZM21.7169 21.1807H21.9666C22.0319 21.1801 22.0968 21.1925 22.1573 21.2171C22.2179 21.2417 22.273 21.2781 22.3194 21.3241C22.3658 21.3702 22.4027 21.4249 22.4278 21.4853C22.453 21.5456 22.4659 21.6103 22.4659 21.6757C22.4659 21.7411 22.453 21.8058 22.4278 21.8662C22.4027 21.9265 22.3658 21.9813 22.3194 22.0273C22.273 22.0733 22.2179 22.1097 22.1573 22.1343C22.0968 22.159 22.0319 22.1713 21.9666 22.1708H21.7169C21.6516 22.1713 21.5867 22.159 21.5262 22.1343C21.4656 22.1097 21.4105 22.0733 21.3641 22.0273C21.3177 21.9813 21.2808 21.9265 21.2557 21.8662C21.2305 21.8058 21.2176 21.7411 21.2176 21.6757C21.2176 21.6103 21.2305 21.5456 21.2557 21.4853C21.2808 21.4249 21.3177 21.3702 21.3641 21.3241C21.4105 21.2781 21.4656 21.2417 21.5262 21.2171C21.5867 21.1925 21.6516 21.1801 21.7169 21.1807ZM15.7261 21.1807H15.9757C16.0411 21.1801 16.1059 21.1925 16.1665 21.2171C16.227 21.2417 16.2821 21.2781 16.3285 21.3241C16.375 21.3702 16.4118 21.4249 16.437 21.4853C16.4621 21.5456 16.4751 21.6103 16.4751 21.6757C16.4751 21.7411 16.4621 21.8058 16.437 21.8662C16.4118 21.9265 16.375 21.9813 16.3285 22.0273C16.2821 22.0733 16.227 22.1097 16.1665 22.1343C16.1059 22.159 16.0411 22.1713 15.9757 22.1708H15.7261C15.6607 22.1713 15.5959 22.159 15.5353 22.1343C15.4747 22.1097 15.4196 22.0733 15.3732 22.0273C15.3268 21.9813 15.2899 21.9265 15.2648 21.8662C15.2396 21.8058 15.2267 21.7411 15.2267 21.6757C15.2267 21.6103 15.2396 21.5456 15.2648 21.4853C15.2899 21.4249 15.3268 21.3702 15.3732 21.3241C15.4196 21.2781 15.4747 21.2417 15.5353 21.2171C15.5959 21.1925 15.6607 21.1801 15.7261 21.1807ZM13.7291 21.1807H13.9787C14.0441 21.1801 14.1089 21.1925 14.1695 21.2171C14.2301 21.2417 14.2851 21.2781 14.3316 21.3241C14.378 21.3702 14.4149 21.4249 14.44 21.4853C14.4651 21.5456 14.4781 21.6103 14.4781 21.6757C14.4781 21.7411 14.4651 21.8058 14.44 21.8662C14.4149 21.9265 14.378 21.9813 14.3316 22.0273C14.2851 22.0733 14.2301 22.1097 14.1695 22.1343C14.1089 22.159 14.0441 22.1713 13.9787 22.1708H13.7291C13.6637 22.1713 13.5989 22.159 13.5383 22.1343C13.4778 22.1097 13.4227 22.0733 13.3763 22.0273C13.3298 21.9813 13.293 21.9265 13.2678 21.8662C13.2427 21.8058 13.2297 21.7411 13.2297 21.6757C13.2297 21.6103 13.2427 21.5456 13.2678 21.4853C13.293 21.4249 13.3298 21.3702 13.3763 21.3241C13.4227 21.2781 13.4778 21.2417 13.5383 21.2171C13.5989 21.1925 13.6637 21.1801 13.7291 21.1807ZM9.73518 21.1807H9.9848C10.0502 21.1801 10.115 21.1925 10.1756 21.2171C10.2361 21.2417 10.2912 21.2781 10.3376 21.3241C10.3841 21.3702 10.4209 21.4249 10.4461 21.4853C10.4712 21.5456 10.4842 21.6103 10.4842 21.6757C10.4842 21.7411 10.4712 21.8058 10.4461 21.8662C10.4209 21.9265 10.3841 21.9813 10.3376 22.0273C10.2912 22.0733 10.2361 22.1097 10.1756 22.1343C10.115 22.159 10.0502 22.1713 9.9848 22.1708H9.73518C9.66981 22.1713 9.60497 22.159 9.54441 22.1343C9.48385 22.1097 9.42876 22.0733 9.38234 22.0273C9.33591 21.9813 9.29906 21.9265 9.27391 21.8662C9.24876 21.8058 9.23581 21.7411 9.23581 21.6757C9.23581 21.6103 9.24876 21.5456 9.27391 21.4853C9.29906 21.4249 9.33591 21.3702 9.38234 21.3241C9.42876 21.2781 9.48385 21.2417 9.54441 21.2171C9.60497 21.1925 9.66981 21.1801 9.73518 21.1807ZM7.73822 21.1807H7.98784C8.05322 21.1801 8.11805 21.1925 8.17861 21.2171C8.23918 21.2417 8.29426 21.2781 8.34069 21.3241C8.38712 21.3702 8.42397 21.4249 8.44912 21.4853C8.47427 21.5456 8.48722 21.6103 8.48722 21.6757C8.48722 21.7411 8.47427 21.8058 8.44912 21.8662C8.42397 21.9265 8.38712 21.9813 8.34069 22.0273C8.29426 22.0733 8.23918 22.1097 8.17861 22.1343C8.11805 22.159 8.05322 22.1713 7.98784 22.1708H7.73822C7.67285 22.1713 7.60801 22.159 7.54745 22.1343C7.48689 22.1097 7.4318 22.0733 7.38538 22.0273C7.33895 21.9813 7.30209 21.9265 7.27695 21.8662C7.2518 21.8058 7.23885 21.7411 7.23885 21.6757C7.23885 21.6103 7.2518 21.5456 7.27695 21.4853C7.30209 21.4249 7.33895 21.3702 7.38538 21.3241C7.4318 21.2781 7.48689 21.2417 7.54745 21.2171C7.60801 21.1925 7.67285 21.1801 7.73822 21.1807ZM5.74126 21.1807H5.99088C6.05625 21.1801 6.12109 21.1925 6.18165 21.2171C6.24222 21.2417 6.2973 21.2781 6.34373 21.3241C6.39016 21.3702 6.42701 21.4249 6.45216 21.4853C6.47731 21.5456 6.49026 21.6103 6.49026 21.6757C6.49026 21.7411 6.47731 21.8058 6.45216 21.8662C6.42701 21.9265 6.39016 21.9813 6.34373 22.0273C6.2973 22.0733 6.24222 22.1097 6.18165 22.1343C6.12109 22.159 6.05625 22.1713 5.99088 22.1708H5.74126C5.67589 22.1713 5.61105 22.159 5.55049 22.1343C5.48993 22.1097 5.43484 22.0733 5.38841 22.0273C5.34199 21.9813 5.30513 21.9265 5.27998 21.8662C5.25484 21.8058 5.24189 21.7411 5.24189 21.6757C5.24189 21.6103 5.25484 21.5456 5.27998 21.4853C5.30513 21.4249 5.34199 21.3702 5.38841 21.3241C5.43484 21.2781 5.48993 21.2417 5.55049 21.2171C5.61105 21.1925 5.67589 21.1801 5.74126 21.1807ZM5.99088 32.5667H5.74126C5.67589 32.5673 5.61105 32.5549 5.55049 32.5303C5.48993 32.5056 5.43485 32.4693 5.38842 32.4232C5.34199 32.3772 5.30514 32.3224 5.27999 32.2621C5.25484 32.2018 5.24189 32.137 5.24189 32.0717C5.24189 32.0063 5.25484 31.9416 5.27999 31.8812C5.30514 31.8209 5.34199 31.7661 5.38842 31.7201C5.43485 31.6741 5.48993 31.6377 5.55049 31.6131C5.61105 31.5884 5.67589 31.576 5.74126 31.5766H5.99088C6.05625 31.576 6.12109 31.5884 6.18165 31.6131C6.24221 31.6377 6.2973 31.6741 6.34372 31.7201C6.39015 31.7661 6.427 31.8209 6.45215 31.8812C6.4773 31.9416 6.49025 32.0063 6.49025 32.0717C6.49025 32.137 6.4773 32.2018 6.45215 32.2621C6.427 32.3224 6.39015 32.3772 6.34372 32.4232C6.2973 32.4693 6.24221 32.5056 6.18165 32.5303C6.12109 32.5549 6.05625 32.5673 5.99088 32.5667ZM7.98784 32.5667H7.73822C7.67285 32.5673 7.60801 32.5549 7.54745 32.5303C7.48689 32.5056 7.43181 32.4693 7.38538 32.4232C7.33895 32.3772 7.3021 32.3224 7.27695 32.2621C7.2518 32.2018 7.23886 32.137 7.23886 32.0717C7.23886 32.0063 7.2518 31.9416 7.27695 31.8812C7.3021 31.8209 7.33895 31.7661 7.38538 31.7201C7.43181 31.6741 7.48689 31.6377 7.54745 31.6131C7.60801 31.5884 7.67285 31.576 7.73822 31.5766H7.98784C8.05321 31.576 8.11805 31.5884 8.17861 31.6131C8.23917 31.6377 8.29426 31.6741 8.34068 31.7201C8.38711 31.7661 8.42396 31.8209 8.44911 31.8812C8.47426 31.9416 8.48721 32.0063 8.48721 32.0717C8.48721 32.137 8.47426 32.2018 8.44911 32.2621C8.42396 32.3224 8.38711 32.3772 8.34068 32.4232C8.29426 32.4693 8.23917 32.5056 8.17861 32.5303C8.11805 32.5549 8.05321 32.5673 7.98784 32.5667ZM9.9848 32.5667H9.73518C9.66981 32.5673 9.60497 32.5549 9.54441 32.5303C9.48385 32.5056 9.42877 32.4693 9.38234 32.4232C9.33591 32.3772 9.29906 32.3224 9.27391 32.2621C9.24876 32.2018 9.23582 32.137 9.23582 32.0717C9.23582 32.0063 9.24876 31.9416 9.27391 31.8812C9.29906 31.8209 9.33591 31.7661 9.38234 31.7201C9.42877 31.6741 9.48385 31.6377 9.54441 31.6131C9.60497 31.5884 9.66981 31.576 9.73518 31.5766H9.9848C10.0502 31.576 10.115 31.5884 10.1756 31.6131C10.2361 31.6377 10.2912 31.6741 10.3376 31.7201C10.3841 31.7661 10.4209 31.8209 10.4461 31.8812C10.4712 31.9416 10.4842 32.0063 10.4842 32.0717C10.4842 32.137 10.4712 32.2018 10.4461 32.2621C10.4209 32.3224 10.3841 32.3772 10.3376 32.4232C10.2912 32.4693 10.2361 32.5056 10.1756 32.5303C10.115 32.5549 10.0502 32.5673 9.9848 32.5667ZM10.5918 26.8105L9.894 27.5194L10.0598 28.5267C10.0747 28.6186 10.0634 28.7128 10.0271 28.7985C9.99074 28.8842 9.93092 28.9579 9.85451 29.0111C9.77769 29.0646 9.68748 29.0956 9.59401 29.1007C9.50054 29.1057 9.40752 29.0846 9.3254 29.0396L8.48708 28.58L7.64876 29.0396C7.56663 29.0845 7.47362 29.1057 7.38015 29.1006C7.28669 29.0956 7.19648 29.0646 7.11966 29.0111C7.04324 28.9579 6.98342 28.8842 6.9471 28.7985C6.91078 28.7128 6.89945 28.6186 6.9144 28.5267L7.08016 27.5194L6.38237 26.8105C6.31838 26.7456 6.27364 26.6642 6.25316 26.5755C6.23267 26.4867 6.23723 26.3939 6.26634 26.3076C6.29578 26.221 6.34849 26.1442 6.41869 26.0856C6.48888 26.027 6.57385 25.9888 6.66429 25.9753L7.60842 25.8322L8.03514 24.9307C8.07594 24.8455 8.14003 24.7735 8.22 24.7231C8.29997 24.6727 8.39257 24.646 8.48709 24.646C8.58161 24.646 8.6742 24.6727 8.75417 24.7231C8.83414 24.7735 8.89823 24.8455 8.93903 24.9307L9.36574 25.8322L10.3099 25.9753C10.4003 25.9889 10.4853 26.027 10.5555 26.0856C10.6257 26.1442 10.6784 26.221 10.7078 26.3076C10.7369 26.3939 10.7415 26.4867 10.721 26.5755C10.7005 26.6643 10.6558 26.7456 10.5918 26.8105ZM11.9818 32.5667H11.7321C11.6668 32.5673 11.6019 32.5549 11.5414 32.5303C11.4808 32.5056 11.4257 32.4693 11.3793 32.4232C11.3329 32.3772 11.296 32.3224 11.2709 32.2621C11.2457 32.2018 11.2328 32.137 11.2328 32.0717C11.2328 32.0063 11.2457 31.9416 11.2709 31.8812C11.296 31.8209 11.3329 31.7661 11.3793 31.7201C11.4257 31.6741 11.4808 31.6377 11.5414 31.6131C11.6019 31.5884 11.6668 31.576 11.7321 31.5766H11.9818C12.0471 31.576 12.112 31.5884 12.1725 31.6131C12.2331 31.6377 12.2882 31.6741 12.3346 31.7201C12.381 31.7661 12.4179 31.8209 12.443 31.8812C12.4682 31.9416 12.4811 32.0063 12.4811 32.0717C12.4811 32.137 12.4682 32.2018 12.443 32.2621C12.4179 32.3224 12.381 32.3772 12.3346 32.4232C12.2882 32.4693 12.2331 32.5056 12.1725 32.5303C12.112 32.5549 12.0471 32.5673 11.9818 32.5667ZM11.9818 22.1708H11.7321C11.6668 22.1713 11.6019 22.159 11.5414 22.1343C11.4808 22.1097 11.4257 22.0733 11.3793 22.0273C11.3329 21.9813 11.296 21.9265 11.2709 21.8662C11.2457 21.8058 11.2328 21.7411 11.2328 21.6757C11.2328 21.6103 11.2457 21.5456 11.2709 21.4853C11.296 21.4249 11.3329 21.3702 11.3793 21.3241C11.4257 21.2781 11.4808 21.2417 11.5414 21.2171C11.6019 21.1925 11.6668 21.1801 11.7321 21.1807H11.9818C12.0471 21.1801 12.112 21.1925 12.1725 21.2171C12.2331 21.2417 12.2882 21.2781 12.3346 21.3241C12.381 21.3702 12.4179 21.4249 12.443 21.4853C12.4682 21.5456 12.4811 21.6103 12.4811 21.6757C12.4811 21.7411 12.4682 21.8058 12.443 21.8662C12.4179 21.9265 12.381 21.9813 12.3346 22.0273C12.2882 22.0733 12.2331 22.1097 12.1725 22.1343C12.112 22.159 12.0471 22.1713 11.9818 22.1708ZM13.9787 32.5667H13.7291C13.6637 32.5673 13.5989 32.5549 13.5383 32.5303C13.4778 32.5056 13.4227 32.4693 13.3763 32.4232C13.3298 32.3772 13.293 32.3224 13.2678 32.2621C13.2427 32.2018 13.2297 32.137 13.2297 32.0717C13.2297 32.0063 13.2427 31.9416 13.2678 31.8812C13.293 31.8209 13.3298 31.7661 13.3763 31.7201C13.4227 31.6741 13.4778 31.6377 13.5383 31.6131C13.5989 31.5884 13.6637 31.576 13.7291 31.5766H13.9787C14.0441 31.576 14.1089 31.5884 14.1695 31.6131C14.2301 31.6377 14.2851 31.6741 14.3316 31.7201C14.378 31.7661 14.4148 31.8209 14.44 31.8812C14.4651 31.9416 14.4781 32.0063 14.4781 32.0717C14.4781 32.137 14.4651 32.2018 14.44 32.2621C14.4148 32.3224 14.378 32.3772 14.3316 32.4232C14.2851 32.4693 14.2301 32.5056 14.1695 32.5303C14.1089 32.5549 14.0441 32.5673 13.9787 32.5667ZM13.9787 26.8737C13.9754 26.478 14.0897 26.0903 14.3071 25.7596C14.5245 25.429 14.8352 25.1704 15.1998 25.0167C15.5644 24.8629 15.9665 24.821 16.3549 24.8961C16.7434 24.9713 17.1009 25.1602 17.3818 25.4388C17.6628 25.7174 17.8547 26.0732 17.9331 26.461C18.0115 26.8489 17.973 27.2513 17.8223 27.6172C17.6717 27.9831 17.4157 28.2959 17.0869 28.5161C16.7582 28.7363 16.3714 28.8539 15.9757 28.8539C15.4483 28.8561 14.9416 28.6487 14.5671 28.2773C14.1926 27.906 13.981 27.4011 13.9787 26.8737ZM15.9757 32.5667H15.7261C15.6607 32.5673 15.5959 32.5549 15.5353 32.5303C15.4747 32.5056 15.4197 32.4693 15.3732 32.4232C15.3268 32.3772 15.2899 32.3224 15.2648 32.2621C15.2396 32.2018 15.2267 32.137 15.2267 32.0717C15.2267 32.0063 15.2396 31.9416 15.2648 31.8812C15.2899 31.8209 15.3268 31.7661 15.3732 31.7201C15.4197 31.6741 15.4747 31.6377 15.5353 31.6131C15.5959 31.5884 15.6607 31.576 15.7261 31.5766H15.9757C16.0411 31.576 16.1059 31.5884 16.1665 31.6131C16.227 31.6377 16.2821 31.6741 16.3285 31.7201C16.375 31.7661 16.4118 31.8209 16.437 31.8812C16.4621 31.9416 16.4751 32.0063 16.4751 32.0717C16.4751 32.137 16.4621 32.2018 16.437 32.2621C16.4118 32.3224 16.375 32.3772 16.3285 32.4232C16.2821 32.4693 16.227 32.5056 16.1665 32.5303C16.1059 32.5549 16.0411 32.5673 15.9757 32.5667ZM17.9726 32.5667H17.723C17.6577 32.5673 17.5928 32.5549 17.5323 32.5303C17.4717 32.5056 17.4166 32.4693 17.3702 32.4232C17.3238 32.3772 17.2869 32.3224 17.2618 32.2621C17.2366 32.2018 17.2237 32.137 17.2237 32.0717C17.2237 32.0063 17.2366 31.9416 17.2618 31.8812C17.2869 31.8209 17.3238 31.7661 17.3702 31.7201C17.4166 31.6741 17.4717 31.6377 17.5323 31.6131C17.5928 31.5884 17.6577 31.576 17.723 31.5766H17.9726C18.038 31.576 18.1029 31.5884 18.1634 31.6131C18.224 31.6377 18.2791 31.6741 18.3255 31.7201C18.3719 31.7661 18.4088 31.8209 18.4339 31.8812C18.4591 31.9416 18.472 32.0063 18.472 32.0717C18.472 32.137 18.4591 32.2018 18.4339 32.2621C18.4088 32.3224 18.3719 32.3772 18.3255 32.4232C18.2791 32.4693 18.224 32.5056 18.1634 32.5303C18.1029 32.5549 18.038 32.5673 17.9726 32.5667ZM17.9726 22.1708H17.723C17.6577 22.1713 17.5928 22.159 17.5323 22.1343C17.4717 22.1097 17.4166 22.0733 17.3702 22.0273C17.3237 21.9813 17.2869 21.9265 17.2617 21.8662C17.2366 21.8058 17.2237 21.7411 17.2237 21.6757C17.2237 21.6103 17.2366 21.5456 17.2617 21.4853C17.2869 21.4249 17.3237 21.3702 17.3702 21.3241C17.4166 21.2781 17.4717 21.2417 17.5323 21.2171C17.5928 21.1925 17.6577 21.1801 17.723 21.1807H17.9726C18.038 21.1801 18.1029 21.1925 18.1634 21.2171C18.224 21.2417 18.2791 21.2781 18.3255 21.3241C18.3719 21.3702 18.4088 21.4249 18.4339 21.4853C18.4591 21.5456 18.472 21.6103 18.472 21.6757C18.472 21.7411 18.4591 21.8058 18.4339 21.8662C18.4088 21.9265 18.3719 21.9813 18.3255 22.0273C18.2791 22.0733 18.224 22.1097 18.1634 22.1343C18.1029 22.159 18.038 22.1713 17.9726 22.1708ZM19.9696 32.5667H19.72C19.6546 32.5673 19.5898 32.5549 19.5292 32.5303C19.4687 32.5056 19.4136 32.4693 19.3671 32.4232C19.3207 32.3772 19.2839 32.3224 19.2587 32.2621C19.2336 32.2018 19.2206 32.137 19.2206 32.0717C19.2206 32.0063 19.2336 31.9416 19.2587 31.8812C19.2839 31.8209 19.3207 31.7661 19.3671 31.7201C19.4136 31.6741 19.4687 31.6377 19.5292 31.6131C19.5898 31.5884 19.6546 31.576 19.72 31.5766H19.9696C20.035 31.576 20.0998 31.5884 20.1604 31.6131C20.2209 31.6377 20.276 31.6741 20.3224 31.7201C20.3689 31.7661 20.4057 31.8209 20.4309 31.8812C20.456 31.9416 20.469 32.0063 20.469 32.0717C20.469 32.137 20.456 32.2018 20.4309 32.2621C20.4057 32.3224 20.3689 32.3772 20.3224 32.4232C20.276 32.4693 20.2209 32.5056 20.1604 32.5303C20.0998 32.5549 20.035 32.5673 19.9696 32.5667ZM19.9696 22.1708H19.72C19.6546 22.1713 19.5898 22.159 19.5292 22.1343C19.4687 22.1097 19.4136 22.0733 19.3671 22.0273C19.3207 21.9813 19.2839 21.9265 19.2587 21.8662C19.2336 21.8058 19.2206 21.7411 19.2206 21.6757C19.2206 21.6103 19.2336 21.5456 19.2587 21.4853C19.2839 21.4249 19.3207 21.3702 19.3671 21.3241C19.4136 21.2781 19.4687 21.2417 19.5292 21.2171C19.5898 21.1925 19.6546 21.1801 19.72 21.1807H19.9696C20.035 21.1801 20.0998 21.1925 20.1604 21.2171C20.2209 21.2417 20.276 21.2781 20.3225 21.3241C20.3689 21.3702 20.4057 21.4249 20.4309 21.4853C20.456 21.5456 20.469 21.6103 20.469 21.6757C20.469 21.7411 20.456 21.8058 20.4309 21.8662C20.4057 21.9265 20.3689 21.9813 20.3225 22.0273C20.276 22.0733 20.2209 22.1097 20.1604 22.1343C20.0998 22.159 20.035 22.1713 19.9696 22.1708ZM21.9666 32.5667H21.7169C21.6516 32.5673 21.5867 32.5549 21.5262 32.5303C21.4656 32.5056 21.4105 32.4693 21.3641 32.4232C21.3177 32.3772 21.2808 32.3224 21.2557 32.2621C21.2305 32.2018 21.2176 32.137 21.2176 32.0717C21.2176 32.0063 21.2305 31.9416 21.2557 31.8812C21.2808 31.8209 21.3177 31.7661 21.3641 31.7201C21.4105 31.6741 21.4656 31.6377 21.5262 31.6131C21.5867 31.5884 21.6516 31.576 21.7169 31.5766H21.9666C22.0319 31.576 22.0968 31.5884 22.1573 31.6131C22.2179 31.6377 22.273 31.6741 22.3194 31.7201C22.3658 31.7661 22.4027 31.8209 22.4278 31.8812C22.453 31.9416 22.4659 32.0063 22.4659 32.0717C22.4659 32.137 22.453 32.2018 22.4278 32.2621C22.4027 32.3224 22.3658 32.3772 22.3194 32.4232C22.273 32.4693 22.2179 32.5056 22.1573 32.5303C22.0968 32.5549 22.0319 32.5673 21.9666 32.5667ZM23.9635 32.5667H23.7139C23.6485 32.5673 23.5837 32.5549 23.5231 32.5303C23.4626 32.5056 23.4075 32.4693 23.3611 32.4232C23.3146 32.3772 23.2778 32.3224 23.2526 32.2621C23.2275 32.2018 23.2145 32.137 23.2145 32.0717C23.2145 32.0063 23.2275 31.9416 23.2526 31.8812C23.2778 31.8209 23.3146 31.7661 23.3611 31.7201C23.4075 31.6741 23.4626 31.6377 23.5231 31.6131C23.5837 31.5884 23.6485 31.576 23.7139 31.5766H23.9635C24.0289 31.576 24.0937 31.5884 24.1543 31.6131C24.2149 31.6377 24.2699 31.6741 24.3164 31.7201C24.3628 31.7661 24.3996 31.8209 24.4248 31.8812C24.4499 31.9416 24.4629 32.0063 24.4629 32.0717C24.4629 32.137 24.4499 32.2018 24.4248 32.2621C24.3996 32.3224 24.3628 32.3772 24.3164 32.4232C24.2699 32.4693 24.2149 32.5056 24.1543 32.5303C24.0937 32.5549 24.0289 32.5673 23.9635 32.5667ZM24.8317 29.0111C24.7549 29.0646 24.6647 29.0956 24.5712 29.1007C24.4777 29.1057 24.3847 29.0846 24.3026 29.0396L23.4643 28.58L22.626 29.0396C22.5438 29.0845 22.4508 29.1057 22.3574 29.1006C22.2639 29.0956 22.1737 29.0646 22.0969 29.0111C22.0204 28.9579 21.9606 28.8842 21.9243 28.7985C21.888 28.7128 21.8766 28.6186 21.8916 28.5267L22.0574 27.5194L21.3596 26.8105C21.2956 26.7456 21.2508 26.6642 21.2304 26.5755C21.2099 26.4867 21.2144 26.3939 21.2435 26.3076C21.273 26.221 21.3257 26.1442 21.3959 26.0856C21.4661 26.027 21.5511 25.9888 21.6415 25.9753L22.5856 25.8322L23.0123 24.9307C23.0531 24.8455 23.1172 24.7735 23.1972 24.7231C23.2772 24.6727 23.3698 24.646 23.4643 24.646C23.5588 24.646 23.6514 24.6727 23.7314 24.7231C23.8113 24.7735 23.8754 24.8455 23.9162 24.9307L24.3429 25.8322L25.2871 25.9753C25.3775 25.9889 25.4625 26.027 25.5327 26.0856C25.6029 26.1442 25.6556 26.221 25.685 26.3076C25.7141 26.3939 25.7187 26.4867 25.6982 26.5755C25.6777 26.6643 25.633 26.7456 25.569 26.8105L24.8712 27.5194L25.037 28.5267C25.0519 28.6186 25.0406 28.7128 25.0043 28.7985C24.9679 28.8842 24.9081 28.9579 24.8317 29.0111ZM25.9605 32.5667H25.7109C25.6455 32.5673 25.5807 32.5549 25.5201 32.5303C25.4595 32.5056 25.4045 32.4693 25.358 32.4232C25.3116 32.3772 25.2747 32.3224 25.2496 32.2621C25.2244 32.2018 25.2115 32.137 25.2115 32.0717C25.2115 32.0063 25.2244 31.9416 25.2496 31.8812C25.2747 31.8209 25.3116 31.7661 25.358 31.7201C25.4045 31.6741 25.4595 31.6377 25.5201 31.6131C25.5807 31.5884 25.6455 31.576 25.7109 31.5766H25.9605C26.0259 31.576 26.0907 31.5884 26.1513 31.6131C26.2118 31.6377 26.2669 31.6741 26.3133 31.7201C26.3598 31.7661 26.3966 31.8209 26.4218 31.8812C26.4469 31.9416 26.4599 32.0063 26.4599 32.0717C26.4599 32.137 26.4469 32.2018 26.4218 32.2621C26.3966 32.3224 26.3598 32.3772 26.3133 32.4232C26.2669 32.4693 26.2118 32.5056 26.1513 32.5303C26.0907 32.5549 26.0259 32.5673 25.9605 32.5667ZM25.9605 22.1708H25.7109C25.6455 22.1713 25.5807 22.159 25.5201 22.1343C25.4595 22.1097 25.4044 22.0733 25.358 22.0273C25.3116 21.9813 25.2747 21.9265 25.2496 21.8662C25.2244 21.8058 25.2115 21.7411 25.2115 21.6757C25.2115 21.6103 25.2244 21.5456 25.2496 21.4853C25.2747 21.4249 25.3116 21.3702 25.358 21.3241C25.4044 21.2781 25.4595 21.2417 25.5201 21.2171C25.5807 21.1925 25.6455 21.1801 25.7109 21.1807H25.9605C26.0259 21.1801 26.0907 21.1925 26.1513 21.2171C26.2118 21.2417 26.2669 21.2781 26.3133 21.3241C26.3598 21.3702 26.3966 21.4249 26.4218 21.4853C26.4469 21.5456 26.4599 21.6103 26.4599 21.6757C26.4599 21.7411 26.4469 21.8058 26.4218 21.8662C26.3966 21.9265 26.3598 21.9813 26.3133 22.0273C26.2669 22.0733 26.2118 22.1097 26.1513 22.1343C26.0907 22.159 26.0259 22.1713 25.9605 22.1708Z" fill="#E7195A"/>
<path d="M9.93205 16.998L9.88345 17.0964H12.0855C12.1023 17.0168 12.0991 16.9342 12.0759 16.8561C12.0528 16.778 12.0106 16.707 11.953 16.6494L11.2756 15.9791L11.4596 14.9875C11.4767 14.8947 11.4669 14.7989 11.4312 14.7116C11.3955 14.6242 11.3355 14.5489 11.2583 14.4946C11.1807 14.44 11.0892 14.4084 10.9945 14.4035C10.8997 14.3986 10.8055 14.4207 10.7227 14.4671L9.85916 14.952L9.02255 14.5208C8.94089 14.4787 8.84925 14.4598 8.7576 14.4661C8.66594 14.4725 8.57778 14.5038 8.50271 14.5568C8.42795 14.6093 8.36926 14.6816 8.33319 14.7656C8.29712 14.8495 8.28508 14.9418 8.29843 15.0322L8.44603 16.0244L7.72301 16.7534C7.63323 16.845 7.58297 16.9682 7.58301 17.0964H9.77218L9.74484 17.0382C9.70877 16.9617 9.65384 16.8956 9.58521 16.8461C9.51657 16.7967 9.43649 16.7655 9.35249 16.7555L9.14614 16.7306L9.33214 16.543C9.38622 16.4887 9.42686 16.4225 9.45082 16.3497C9.47477 16.2768 9.48138 16.1994 9.47011 16.1236L9.42879 15.8461L9.63905 15.9544C9.71294 15.9925 9.79511 16.0116 9.87821 16.0102C9.96132 16.0087 10.0428 15.9866 10.1152 15.946L10.2841 15.8512L10.246 16.0559C10.2314 16.135 10.2363 16.2165 10.2604 16.2932C10.2846 16.37 10.3271 16.4396 10.3844 16.4961L10.5698 16.6795L10.2926 16.7285C10.2156 16.742 10.1428 16.7735 10.0802 16.8203C10.0175 16.8671 9.9668 16.928 9.93205 16.998Z" fill="#E7195A"/>
</g>
<path d="M59.4136 10.566L59.7198 18.2516H59.138C58.2398 15.5366 57.4437 13.6892 56.7496 12.7094C56.0556 11.7091 55.0553 11.209 53.7489 11.209H53.3814V31.357H55.9841V32H44.8078V31.357H47.4105V11.209H47.0124C45.706 11.209 44.6955 11.7295 43.9811 12.7706C43.2666 13.7913 42.4807 15.6183 41.6233 18.2516H41.0415L41.3477 10.566H59.4136ZM147.891 10.566H156.067V11.1477H154.383V31.4182H156.067V32H146.728V31.4182H148.412V12.2807H148.289L143.696 32H139.869L134.48 12.1888H134.357V31.4182H136.041V32H131.877V31.4182H133.561V11.1477H131.877V10.566H140.145L144.217 26.3353L147.891 10.566Z" fill="#E7195A"/>
<path d="M65.6483 15.3121C64.5664 15.3121 63.7907 15.0365 63.3212 14.4853C62.8721 13.9342 62.6476 13.2503 62.6476 12.4338C62.6476 11.6172 62.8925 10.9436 63.3825 10.4129C63.8928 9.88211 64.6583 9.61673 65.679 9.61673C66.6996 9.61673 67.4753 9.86169 68.0061 10.3516C68.5368 10.8211 68.8022 11.505 68.8022 12.4032C68.8022 13.2809 68.547 13.9852 68.0367 14.5159C67.5264 15.0467 66.7302 15.3121 65.6483 15.3121ZM61.0247 17.4249H68.5266V31.4488H70.2413V32H61.1472V31.4488H62.8313V17.976H61.0247V17.4249ZM79.4391 17.6698C78.5409 17.6698 77.8979 18.1597 77.51 19.1396C77.1222 20.1194 76.9282 21.7423 76.9282 24.0082V25.6004C76.9282 27.6213 77.1528 29.0707 77.6019 29.9485C78.051 30.8262 78.8777 31.2651 80.0821 31.2651C81.2865 31.2651 82.2459 30.8569 82.9604 30.0403C83.6749 29.2238 84.1342 28.295 84.3383 27.2539L84.8895 27.3151C84.5016 29.0707 83.7871 30.3363 82.7461 31.112C81.6846 31.9081 80.225 32.3062 78.3674 32.3062C75.9994 32.3062 74.1826 31.6734 72.917 30.4078C71.6514 29.1217 71.0186 27.2539 71.0186 24.8043C71.0186 22.3343 71.733 20.4358 73.162 19.109C74.6113 17.7821 76.622 17.1186 79.1941 17.1186C81.0109 17.1186 82.399 17.4759 83.3585 18.1904C84.3179 18.8844 84.7976 19.7622 84.7976 20.8237C84.7976 21.8852 84.5628 22.6609 84.0933 23.1508C83.6442 23.6407 83.0114 23.8857 82.1949 23.8857C81.3988 23.8857 80.7558 23.6713 80.2658 23.2427C79.7759 22.814 79.531 22.1812 79.531 21.3442C79.531 20.9768 79.582 20.6093 79.6841 20.2419H80.6945C80.8374 19.8336 80.9089 19.4662 80.9089 19.1396C80.9089 18.1597 80.4189 17.6698 79.4391 17.6698ZM95.3809 32V31.4488H96.7894L93.3294 24.345L92.7476 24.4981V31.4488H94.1561V32H85.3681V31.4488H87.0522V9.58611H85.2457V9.03495H92.7476V23.8857L93.2375 23.702L100.127 17.976H97.2487V17.4249H103.281V17.976H101.137L97.4937 21.0686L102.791 31.4488H103.893V32H95.3809ZM111.632 32.3062C108.998 32.3062 107.018 31.6326 105.691 30.2853C104.385 28.9176 103.732 27.0293 103.732 24.6206C103.732 22.1914 104.467 20.3338 105.936 19.0477C107.427 17.7617 109.315 17.1186 111.601 17.1186C116.235 17.1186 118.46 19.4458 118.276 24.1H109.641V25.2942C109.641 27.2947 109.897 28.8053 110.407 29.826C110.917 30.8466 111.805 31.357 113.071 31.357C115.439 31.357 116.99 30.0913 117.725 27.5601L118.276 27.652C117.888 29.1217 117.184 30.2649 116.164 31.0814C115.163 31.8979 113.653 32.3062 111.632 32.3062ZM109.672 23.4876H112.826V21.9872C112.826 20.3338 112.724 19.211 112.52 18.619C112.336 18.0066 111.948 17.7004 111.356 17.7004C110.785 17.7004 110.356 18.027 110.07 18.6803C109.805 19.3131 109.672 20.4154 109.672 21.9872V23.4876ZM120.898 27.6213V17.976H119.214V17.4249H120.898V13.4749L126.594 12.0663V17.4249H130.574V17.976H126.594V28.295C126.594 29.2544 126.685 29.9587 126.869 30.4078C127.073 30.8569 127.481 31.0814 128.094 31.0814C128.706 31.0814 129.237 30.7752 129.686 30.1628C130.156 29.5504 130.462 28.7134 130.605 27.652L131.125 27.7132C130.962 29.1217 130.513 30.2444 129.778 31.0814C129.043 31.8979 127.829 32.3062 126.134 32.3062C124.44 32.3062 123.144 31.9694 122.245 31.2957C121.347 30.6221 120.898 29.3973 120.898 27.6213ZM164.483 24.8043H165.371V22.4465C165.371 20.5073 165.258 19.211 165.034 18.5578C164.83 17.8842 164.421 17.5473 163.809 17.5473C163.442 17.5473 163.105 17.6494 162.799 17.8535C162.513 18.0373 162.37 18.3026 162.37 18.6497C162.37 18.9763 162.431 19.3131 162.554 19.6601H163.319C163.482 20.0888 163.564 20.6093 163.564 21.2217C163.564 21.8137 163.309 22.3343 162.799 22.7834C162.288 23.212 161.645 23.4264 160.87 23.4264C159.114 23.4264 158.236 22.5792 158.236 20.8849C158.236 18.3741 160.369 17.1186 164.636 17.1186C167.065 17.1186 168.739 17.5371 169.658 18.3741C170.597 19.1906 171.066 20.7012 171.066 22.9058V29.1217C171.066 30.1832 171.362 30.714 171.954 30.714C172.648 30.714 173.056 29.6627 173.179 27.5601L173.638 27.5907C173.556 29.3871 173.22 30.6221 172.628 31.2957C172.036 31.9694 171.066 32.3062 169.719 32.3062C167.269 32.3062 165.861 31.5509 165.493 30.0403C165.228 30.816 164.83 31.3876 164.299 31.755C163.768 32.1225 162.993 32.3062 161.972 32.3062C158.951 32.3062 157.44 31.0712 157.44 28.6012C157.44 27.1518 158.012 26.1618 159.155 25.631C160.318 25.0799 162.094 24.8043 164.483 24.8043ZM163.258 28.5706C163.258 29.632 163.309 30.3159 163.411 30.6221C163.533 30.9283 163.748 31.0814 164.054 31.0814C164.381 31.0814 164.677 30.8262 164.942 30.3159C165.228 29.7851 165.371 29.0605 165.371 28.1419V25.2942H165.156C163.891 25.2942 163.258 26.223 163.258 28.0806V28.5706ZM173.939 9.03495H181.318V20.2419C181.645 19.3029 182.145 18.5476 182.819 17.976C183.493 17.4044 184.513 17.1186 185.881 17.1186C189.045 17.1186 190.627 18.8232 190.627 22.2322V31.4488H192.342V32H183.676V31.4488H184.932V21.4973C184.932 20.2725 184.85 19.4866 184.687 19.1396C184.523 18.7721 184.227 18.5884 183.799 18.5884C183.145 18.5884 182.564 19.0171 182.053 19.8745C181.563 20.7318 181.318 21.7729 181.318 22.9977V31.4488H182.635V32H173.939V31.4488H175.623V9.58611H173.939V9.03495ZM200.156 24.8043H201.044V22.4465C201.044 20.5073 200.932 19.211 200.707 18.5578C200.503 17.8842 200.095 17.5473 199.483 17.5473C199.115 17.5473 198.778 17.6494 198.472 17.8535C198.186 18.0373 198.044 18.3026 198.044 18.6497C198.044 18.9763 198.105 19.3131 198.227 19.6601H198.993C199.156 20.0888 199.238 20.6093 199.238 21.2217C199.238 21.8137 198.983 22.3343 198.472 22.7834C197.962 23.212 197.319 23.4264 196.543 23.4264C194.788 23.4264 193.91 22.5792 193.91 20.8849C193.91 18.3741 196.043 17.1186 200.309 17.1186C202.739 17.1186 204.412 17.5371 205.331 18.3741C206.27 19.1906 206.74 20.7012 206.74 22.9058V29.1217C206.74 30.1832 207.036 30.714 207.628 30.714C208.322 30.714 208.73 29.6627 208.852 27.5601L209.312 27.5907C209.23 29.3871 208.893 30.6221 208.301 31.2957C207.709 31.9694 206.74 32.3062 205.392 32.3062C202.943 32.3062 201.534 31.5509 201.167 30.0403C200.901 30.816 200.503 31.3876 199.973 31.755C199.442 32.1225 198.666 32.3062 197.645 32.3062C194.624 32.3062 193.114 31.0712 193.114 28.6012C193.114 27.1518 193.685 26.1618 194.828 25.631C195.992 25.0799 197.768 24.8043 200.156 24.8043ZM198.931 28.5706C198.931 29.632 198.983 30.3159 199.085 30.6221C199.207 30.9283 199.421 31.0814 199.728 31.0814C200.054 31.0814 200.35 30.8262 200.616 30.3159C200.901 29.7851 201.044 29.0605 201.044 28.1419V25.2942H200.83C199.564 25.2942 198.931 26.223 198.931 28.0806V28.5706ZM209.49 9.03495H216.992V31.4488H218.707V32H209.613V31.4488H211.297V9.58611H209.49V9.03495Z" fill="white"/>
<defs>
<clipPath id="clip0_40_1025">
<rect width="31.9514" height="31.9514" fill="white" transform="translate(0 4.52441)"/>
</clipPath>
</defs>
</svg>
