<svg width="44" height="43" viewBox="0 0 44 43" fill="none" xmlns="http://www.w3.org/2000/svg">
<path d="M43.4604 14.6445V40.1266C43.4604 41.3555 42.465 42.3508 41.2361 42.3508H2.76426C1.53535 42.3508 0.540039 41.3555 0.540039 40.1266V14.6445H43.4604Z" fill="#F3F3F3"/>
<path d="M43.4604 8.37774V14.6441H0.540039V8.37774C0.540039 6.01133 2.45957 4.0918 4.82598 4.0918H39.1643C41.5408 4.0918 43.4604 6.01133 43.4604 8.37774Z" fill="#ED1F79"/>
<path d="M11.1331 10.5107H9.58936C9.08154 10.5107 8.67529 10.1045 8.67529 9.59668V1.57324C8.67529 1.06543 9.08154 0.65918 9.58936 0.65918H11.1331C11.6409 0.65918 12.0472 1.06543 12.0472 1.57324V9.59668C12.0573 10.1045 11.6409 10.5107 11.1331 10.5107Z" fill="#FBB03A"/>
<path d="M34.2386 10.5107H32.6948C32.187 10.5107 31.7808 10.1045 31.7808 9.59668V1.57324C31.7808 1.06543 32.187 0.65918 32.6948 0.65918H34.2386C34.7464 0.65918 35.1526 1.06543 35.1526 1.57324V9.59668C35.1526 10.1045 34.7464 10.5107 34.2386 10.5107Z" fill="#FBB03A"/>
<path d="M19.2986 22.5055L28.4798 33.3727C28.8861 33.8602 28.6627 34.6016 28.0533 34.7743L24.8744 35.6579L19.3189 37.2016L11.6408 39.3344C10.9298 39.5375 10.3103 38.8063 10.6252 38.1258L12.9103 33.2508L14.7181 29.4016L17.8564 22.7086C18.1205 22.1196 18.8923 22.018 19.2986 22.5055Z" fill="#29AAE2"/>
<path d="M24.8742 35.6478L19.3188 37.1916L12.9102 33.2408L14.7078 29.3916L24.8742 35.6478Z" fill="#FBB03A"/>
<path d="M29.0891 17.8842L30.318 20.3826L33.0704 20.7787C33.436 20.8295 33.5884 21.2865 33.3141 21.5404L31.3235 23.4803L31.7907 26.2225C31.8516 26.5881 31.4657 26.8623 31.1407 26.6896L28.6727 25.3896L26.2048 26.6896C25.8798 26.8623 25.4938 26.5881 25.5548 26.2225L26.022 23.4803L24.0313 21.5404C23.7673 21.2865 23.9094 20.8295 24.2751 20.7787L27.0274 20.3826L28.2563 17.8842C28.4493 17.549 28.9266 17.549 29.0891 17.8842Z" fill="#FBB03A"/>
</svg>
