<svg width="518" height="82" viewBox="0 0 518 82" fill="none" xmlns="http://www.w3.org/2000/svg">
<path d="M59.4696 0H472.105L517.49 81.6146H0L59.4696 0Z" fill="#696969"/>
<path d="M59.3112 0.0286706C59.4166 0.00959507 59.5235 0 59.6306 0H471.896C472.035 0 472.174 0.0162435 472.31 0.0484018L502.566 7.22331C504.637 7.71437 504.28 10.7624 502.152 10.7624H19.9842C17.7977 10.7624 17.5132 7.59296 19.6648 7.20358L59.3112 0.0286706Z" fill="#C2C0C0"/>
<path d="M85.9266 53.14H77.575L76.1401 57.2153H72.7248L79.871 37.2404H83.6594L90.8056 57.2153H87.3616L85.9266 53.14ZM85.0083 50.4709L81.7652 41.2009L78.4934 50.4709H85.0083ZM97.1845 54.575H103.929V57.2153H93.9128V37.2691H97.1845V54.575ZM109.937 54.575H116.681V57.2153H106.665V37.2691H109.937V54.575ZM130.144 39.9095V45.7642H137.032V48.4332H130.144V54.5463H137.893V57.2153H126.872V37.2404H137.893V39.9095H130.144ZM156.703 37.2691L150.102 49.983V57.2153H146.831V49.983L140.201 37.2691H143.846L148.467 47.0557L153.087 37.2691H156.703ZM162.571 39.9095V45.7642H169.459V48.4332H162.571V54.5463H170.32V57.2153H159.3V37.2404H170.32V39.9095H162.571ZM180.922 57.4162C179.583 57.4162 178.378 57.1866 177.306 56.7274C176.235 56.2491 175.393 55.5795 174.781 54.7185C174.168 53.8575 173.862 52.853 173.862 51.705H177.364C177.44 52.566 177.775 53.2739 178.368 53.8288C178.98 54.3836 179.832 54.6611 180.922 54.6611C182.051 54.6611 182.931 54.3932 183.563 53.8575C184.194 53.3026 184.51 52.5947 184.51 51.7337C184.51 51.064 184.309 50.5188 183.907 50.0978C183.525 49.6769 183.037 49.3516 182.444 49.122C181.87 48.8924 181.066 48.6437 180.033 48.3758C178.732 48.0314 177.67 47.6871 176.847 47.3427C176.043 46.9791 175.355 46.4243 174.781 45.6781C174.207 44.9319 173.92 43.937 173.92 42.6933C173.92 41.5453 174.207 40.5408 174.781 39.6799C175.355 38.8189 176.158 38.1588 177.191 37.6996C178.225 37.2404 179.42 37.0108 180.779 37.0108C182.711 37.0108 184.29 37.4987 185.514 38.4745C186.758 39.4311 187.447 40.7513 187.581 42.435H183.965C183.907 41.708 183.563 41.0861 182.931 40.5695C182.3 40.053 181.468 39.7947 180.435 39.7947C179.497 39.7947 178.732 40.0338 178.139 40.5121C177.545 40.9905 177.249 41.6793 177.249 42.5785C177.249 43.1908 177.431 43.6978 177.794 44.0996C178.177 44.4823 178.655 44.7884 179.229 45.018C179.803 45.2476 180.588 45.4963 181.583 45.7642C182.903 46.1277 183.974 46.4912 184.797 46.8548C185.639 47.2183 186.347 47.7827 186.921 48.548C187.514 49.2942 187.81 50.2987 187.81 51.5615C187.81 52.5756 187.533 53.5322 186.978 54.4315C186.442 55.3307 185.648 56.0578 184.596 56.6126C183.563 57.1484 182.338 57.4162 180.922 57.4162ZM212.012 37.2691V39.9382H206.703V57.2153H203.431V39.9382H198.093V37.2691H212.012ZM231.254 37.2691V57.2153H227.982V48.4906H218.597V57.2153H215.326V37.2691H218.597V45.8216H227.982V37.2691H231.254ZM238.833 37.2691V57.2153H235.561V37.2691H238.833ZM249.701 57.4162C248.361 57.4162 247.156 57.1866 246.084 56.7274C245.013 56.2491 244.171 55.5795 243.559 54.7185C242.947 53.8575 242.641 52.853 242.641 51.705H246.142C246.218 52.566 246.553 53.2739 247.146 53.8288C247.759 54.3836 248.61 54.6611 249.701 54.6611C250.829 54.6611 251.71 54.3932 252.341 53.8575C252.972 53.3026 253.288 52.5947 253.288 51.7337C253.288 51.064 253.087 50.5188 252.685 50.0978C252.303 49.6769 251.815 49.3516 251.222 49.122C250.648 48.8924 249.844 48.6437 248.811 48.3758C247.51 48.0314 246.448 47.6871 245.625 47.3427C244.822 46.9791 244.133 46.4243 243.559 45.6781C242.985 44.9319 242.698 43.937 242.698 42.6933C242.698 41.5453 242.985 40.5408 243.559 39.6799C244.133 38.8189 244.937 38.1588 245.97 37.6996C247.003 37.2404 248.199 37.0108 249.557 37.0108C251.49 37.0108 253.068 37.4987 254.293 38.4745C255.536 39.4311 256.225 40.7513 256.359 42.435H252.743C252.685 41.708 252.341 41.0861 251.71 40.5695C251.078 40.053 250.246 39.7947 249.213 39.7947C248.275 39.7947 247.51 40.0338 246.917 40.5121C246.324 40.9905 246.027 41.6793 246.027 42.5785C246.027 43.1908 246.209 43.6978 246.572 44.0996C246.955 44.4823 247.433 44.7884 248.007 45.018C248.581 45.2476 249.366 45.4963 250.361 45.7642C251.681 46.1277 252.752 46.4912 253.575 46.8548C254.417 47.2183 255.125 47.7827 255.699 48.548C256.292 49.2942 256.589 50.2987 256.589 51.5615C256.589 52.5756 256.311 53.5322 255.756 54.4315C255.221 55.3307 254.427 56.0578 253.374 56.6126C252.341 57.1484 251.116 57.4162 249.701 57.4162ZM293.877 37.2691L287.965 57.2153H284.263L280.073 42.1193L275.624 57.2153L271.951 57.244L266.297 37.2691H269.77L273.903 53.5131L278.38 37.2691H282.053L286.215 53.427L290.376 37.2691H293.877ZM308.601 53.14H300.249L298.814 57.2153H295.399L302.545 37.2404H306.334L313.48 57.2153H310.036L308.601 53.14ZM307.683 50.4709L304.44 41.2009L301.168 50.4709H307.683ZM331.367 37.2691L324.767 49.983V57.2153H321.495V49.983L314.865 37.2691H318.51L323.131 47.0557L327.751 37.2691H331.367ZM355.367 43.2099C355.367 44.224 355.128 45.1806 354.65 46.0799C354.171 46.9791 353.406 47.7158 352.354 48.2897C351.301 48.8446 349.952 49.122 348.307 49.122H344.691V57.2153H341.419V37.2691H348.307C349.838 37.2691 351.129 37.5369 352.181 38.0727C353.253 38.5893 354.047 39.2972 354.564 40.1964C355.099 41.0957 355.367 42.1002 355.367 43.2099ZM348.307 46.453C349.551 46.453 350.479 46.1755 351.091 45.6207C351.703 45.0467 352.009 44.2431 352.009 43.2099C352.009 41.0287 350.775 39.9382 348.307 39.9382H344.691V46.453H348.307ZM361.759 54.575H368.504V57.2153H358.487V37.2691H361.759V54.575ZM374.512 39.9095V45.7642H381.399V48.4332H374.512V54.5463H382.26V57.2153H371.24V37.2404H382.26V39.9095H374.512ZM398.315 53.14H389.964L388.529 57.2153H385.114L392.26 37.2404H396.048L403.194 57.2153H399.75L398.315 53.14ZM397.397 50.4709L394.154 41.2009L390.882 50.4709H397.397ZM412.874 57.4162C411.534 57.4162 410.329 57.1866 409.258 56.7274C408.186 56.2491 407.344 55.5795 406.732 54.7185C406.12 53.8575 405.814 52.853 405.814 51.705H409.315C409.392 52.566 409.726 53.2739 410.319 53.8288C410.932 54.3836 411.783 54.6611 412.874 54.6611C414.003 54.6611 414.883 54.3932 415.514 53.8575C416.145 53.3026 416.461 52.5947 416.461 51.7337C416.461 51.064 416.26 50.5188 415.858 50.0978C415.476 49.6769 414.988 49.3516 414.395 49.122C413.821 48.8924 413.017 48.6437 411.984 48.3758C410.683 48.0314 409.621 47.6871 408.798 47.3427C407.995 46.9791 407.306 46.4243 406.732 45.6781C406.158 44.9319 405.871 43.937 405.871 42.6933C405.871 41.5453 406.158 40.5408 406.732 39.6799C407.306 38.8189 408.11 38.1588 409.143 37.6996C410.176 37.2404 411.372 37.0108 412.73 37.0108C414.663 37.0108 416.241 37.4987 417.466 38.4745C418.709 39.4311 419.398 40.7513 419.532 42.435H415.916C415.858 41.708 415.514 41.0861 414.883 40.5695C414.251 40.053 413.419 39.7947 412.386 39.7947C411.448 39.7947 410.683 40.0338 410.09 40.5121C409.497 40.9905 409.2 41.6793 409.2 42.5785C409.2 43.1908 409.382 43.6978 409.745 44.0996C410.128 44.4823 410.606 44.7884 411.18 45.018C411.754 45.2476 412.539 45.4963 413.534 45.7642C414.854 46.1277 415.925 46.4912 416.748 46.8548C417.59 47.2183 418.298 47.7827 418.872 48.548C419.465 49.2942 419.762 50.2987 419.762 51.5615C419.762 52.5756 419.484 53.5322 418.929 54.4315C418.394 55.3307 417.6 56.0578 416.547 56.6126C415.514 57.1484 414.29 57.4162 412.874 57.4162ZM426.894 39.9095V45.7642H433.782V48.4332H426.894V54.5463H434.643V57.2153H423.622V37.2404H434.643V39.9095H426.894ZM442.777 37.2691L442.404 51.1884H439.677L439.304 37.2691H442.777ZM441.141 57.4162C440.548 57.4162 440.05 57.2153 439.648 56.8135C439.247 56.4117 439.046 55.9143 439.046 55.3212C439.046 54.728 439.247 54.2306 439.648 53.8288C440.05 53.427 440.548 53.2261 441.141 53.2261C441.715 53.2261 442.203 53.427 442.605 53.8288C443.006 54.2306 443.207 54.728 443.207 55.3212C443.207 55.9143 443.006 56.4117 442.605 56.8135C442.203 57.2153 441.715 57.4162 441.141 57.4162Z" fill="white"/>
</svg>
